<?xml version="1.0" encoding="UTF-8" standalone="no"?><svg xmlns="http://www.w3.org/2000/svg" height="821" version="1.1" viewport="0 0 810 701" width="860"><g id="labelLayer"><text dominant-baseline="middle" style="font-size: smaller;" text-anchor="middle" x="289.76375263398984" y="315.5842121981358">1</text><text dominant-baseline="middle" style="font-size: smaller;" text-anchor="middle" x="115.34482758620689" y="195.0">1</text><text dominant-baseline="middle" style="font-size: smaller;" text-anchor="middle" x="294.23301663284644" y="320.18964400210984">2</text><text dominant-baseline="middle" style="font-size: smaller;" text-anchor="middle" x="87.75862068965517" y="195.0">2</text><text dominant-baseline="middle" style="font-size: smaller;" text-anchor="middle" x="289.18687379304765" y="363.7005348115544">3</text><text dominant-baseline="middle" style="font-size: smaller;" text-anchor="middle" x="60.172413793103445" y="195.0">3</text><text dominant-baseline="middle" style="font-size: smaller;" text-anchor="middle" x="156.12738354053326" y="430.97394159610127">4</text><text dominant-baseline="middle" style="font-size: smaller;" text-anchor="middle" x="32.58620689655172" y="195.0">4</text><text dominant-baseline="middle" style="font-size: smaller;" text-anchor="middle" x="312.95167957893045" y="410.9589874306463">5</text><text dominant-baseline="middle" style="font-size: smaller;" text-anchor="middle" x="667.0689655172414" y="195.0">5</text><text dominant-baseline="middle" style="font-size: smaller;" text-anchor="middle" x="402.92742902633915" y="372.0118006627949">6</text><text dominant-baseline="middle" style="font-size: smaller;" text-anchor="middle" x="694.655172413793" y="195.0">6</text><text dominant-baseline="middle" style="font-size: smaller;" text-anchor="middle" x="665.6747768068635" y="261.0">7</text><text dominant-baseline="middle" style="font-size: smaller;" text-anchor="middle" x="722.2413793103448" y="195.0">7</text><text dominant-baseline="middle" style="font-size: smaller;" text-anchor="middle" x="274.6969496228147" y="514.7055260206446">8</text><text dominant-baseline="middle" style="font-size: smaller;" text-anchor="middle" x="749.8275862068965" y="195.0">8</text><text dominant-baseline="middle" style="font-size: smaller;" text-anchor="middle" x="375.71725412274884" y="490.80426168244276">9</text><text dominant-baseline="middle" style="font-size: smaller;" text-anchor="middle" x="777.4137931034483" y="195.0">9</text><text dominant-baseline="middle" style="font-size: smaller;" text-anchor="middle" x="273.0530617978742" y="619.2881340520917">10</text><text dominant-baseline="middle" style="font-size: smaller;" text-anchor="middle" x="584.3103448275862" y="195.0">10</text><text dominant-baseline="middle" style="font-size: smaller;" text-anchor="middle" x="304.9014004151052" y="626.3189316507365">11</text><text dominant-baseline="middle" style="font-size: smaller;" text-anchor="middle" x="639.4827586206897" y="195.0">11</text><text dominant-baseline="middle" style="font-size: smaller;" text-anchor="middle" x="257.8575815515015" y="661.0">12</text><text dominant-baseline="middle" style="font-size: smaller;" text-anchor="middle" x="611.8965517241379" y="195.0">12</text><text dominant-baseline="middle" style="font-size: smaller;" text-anchor="middle" x="176.0377856400595" y="579.9825768052219">13</text><text dominant-baseline="middle" style="font-size: smaller;" text-anchor="middle" x="418.7931034482758" y="195.0">13</text><text dominant-baseline="middle" style="font-size: smaller;" text-anchor="middle" x="183.14960293203714" y="540.1189895864354">14</text><text dominant-baseline="middle" style="font-size: smaller;" text-anchor="middle" x="446.37931034482756" y="195.0">14</text><text dominant-baseline="middle" style="font-size: smaller;" text-anchor="middle" x="189.2220117840605" y="616.4461958282943">15</text><text dominant-baseline="middle" style="font-size: smaller;" text-anchor="middle" x="501.551724137931" y="195.0">15</text><text dominant-baseline="middle" style="font-size: smaller;" text-anchor="middle" x="173.83857602560136" y="581.9405699879558">16</text><text dominant-baseline="middle" style="font-size: smaller;" text-anchor="middle" x="473.9655172413793" y="195.0">16</text><text dominant-baseline="middle" style="font-size: smaller;" text-anchor="middle" x="259.6793042071085" y="607.0896129672263">17</text><text dominant-baseline="middle" style="font-size: smaller;" text-anchor="middle" x="529.1379310344827" y="195.0">17</text><text dominant-baseline="middle" style="font-size: smaller;" text-anchor="middle" x="214.72612896255853" y="610.5968824076192">18</text><text dominant-baseline="middle" style="font-size: smaller;" text-anchor="middle" x="556.7241379310344" y="195.0">18</text><text dominant-baseline="middle" style="font-size: smaller;" text-anchor="middle" x="155.3032709106158" y="655.2972724900962">19</text><text dominant-baseline="middle" style="font-size: smaller;" text-anchor="middle" x="391.2068965517241" y="195.0">19</text><text dominant-baseline="middle" style="font-size: smaller;" text-anchor="middle" x="156.41076262029438" y="567.4105827443425">20</text><text dominant-baseline="middle" style="font-size: smaller;" text-anchor="middle" x="363.6206896551724" y="195.0">20</text><text dominant-baseline="middle" style="font-size: smaller;" text-anchor="middle" x="161.14969940464601" y="489.06931861946225">21</text><text dominant-baseline="middle" style="font-size: smaller;" text-anchor="middle" x="308.44827586206895" y="195.0">21</text><text dominant-baseline="middle" style="font-size: smaller;" text-anchor="middle" x="214.361639850274" y="518.4550338509456">22</text><text dominant-baseline="middle" style="font-size: smaller;" text-anchor="middle" x="336.0344827586207" y="195.0">22</text><text dominant-baseline="middle" style="font-size: smaller;" text-anchor="middle" x="211.92559183247062" y="384.81208536372526">23</text><text dominant-baseline="middle" style="font-size: smaller;" text-anchor="middle" x="225.68965517241378" y="195.0">23</text><text dominant-baseline="middle" style="font-size: smaller;" text-anchor="middle" x="145.18258949057693" y="440.26762132279373">24</text><text dominant-baseline="middle" style="font-size: smaller;" text-anchor="middle" x="198.10344827586206" y="195.0">24</text><text dominant-baseline="middle" style="font-size: smaller;" text-anchor="middle" x="212.05860650256253" y="443.92708168809827">25</text><text dominant-baseline="middle" style="font-size: smaller;" text-anchor="middle" x="253.2758620689655" y="195.0">25</text><text dominant-baseline="middle" style="font-size: smaller;" text-anchor="middle" x="187.82102031320085" y="464.28421041566537">26</text><text dominant-baseline="middle" style="font-size: smaller;" text-anchor="middle" x="280.8620689655172" y="195.0">26</text><text dominant-baseline="middle" style="font-size: smaller;" text-anchor="middle" x="144.32522319313648" y="448.17306857837855">27</text><text dominant-baseline="middle" style="font-size: smaller;" text-anchor="middle" x="142.9310344827586" y="195.0">27</text><text dominant-baseline="middle" style="font-size: smaller;" text-anchor="middle" x="151.107525556194" y="457.9591353291101">28</text><text dominant-baseline="middle" style="font-size: smaller;" text-anchor="middle" x="170.51724137931035" y="195.0">28</text></g><g id="leaderLayer"><path d="M289.76375263398984,305.5842121981358 115.34482758620689,201.0" fill="none" stroke="#666666" stroke-linecap="round" stroke-opacity="0.5" stroke-width="2"/><path d="M294.23301663284644,310.18964400210984 87.75862068965517,201.0" fill="none" stroke="#666666" stroke-linecap="round" stroke-opacity="0.5" stroke-width="2"/><path d="M289.18687379304765,353.7005348115544 60.172413793103445,201.0" fill="none" stroke="#666666" stroke-linecap="round" stroke-opacity="0.5" stroke-width="2"/><path d="M156.12738354053326,420.97394159610127 32.58620689655172,201.0" fill="none" stroke="#666666" stroke-linecap="round" stroke-opacity="0.5" stroke-width="2"/><path d="M312.95167957893045,400.9589874306463 667.0689655172414,201.0" fill="none" stroke="#666666" stroke-linecap="round" stroke-opacity="0.5" stroke-width="2"/><path d="M402.92742902633915,362.0118006627949 694.655172413793,201.0" fill="none" stroke="#666666" stroke-linecap="round" stroke-opacity="0.5" stroke-width="2"/><path d="M665.6747768068635,251.0 722.2413793103448,201.0" fill="none" stroke="#666666" stroke-linecap="round" stroke-opacity="0.5" stroke-width="2"/><path d="M274.6969496228147,504.7055260206445 749.8275862068965,201.0" fill="none" stroke="#666666" stroke-linecap="round" stroke-opacity="0.5" stroke-width="2"/><path d="M375.71725412274884,480.80426168244276 777.4137931034483,201.0" fill="none" stroke="#666666" stroke-linecap="round" stroke-opacity="0.5" stroke-width="2"/><path d="M273.0530617978742,609.2881340520917 584.3103448275862,201.0" fill="none" stroke="#666666" stroke-linecap="round" stroke-opacity="0.5" stroke-width="2"/><path d="M304.9014004151052,616.3189316507365 639.4827586206897,201.0" fill="none" stroke="#666666" stroke-linecap="round" stroke-opacity="0.5" stroke-width="2"/><path d="M257.8575815515015,651.0 611.8965517241379,201.0" fill="none" stroke="#666666" stroke-linecap="round" stroke-opacity="0.5" stroke-width="2"/><path d="M176.0377856400595,569.9825768052219 418.7931034482758,201.0" fill="none" stroke="#666666" stroke-linecap="round" stroke-opacity="0.5" stroke-width="2"/><path d="M183.14960293203714,530.1189895864354 446.37931034482756,201.0" fill="none" stroke="#666666" stroke-linecap="round" stroke-opacity="0.5" stroke-width="2"/><path d="M189.2220117840605,606.4461958282943 501.551724137931,201.0" fill="none" stroke="#666666" stroke-linecap="round" stroke-opacity="0.5" stroke-width="2"/><path d="M173.83857602560136,571.9405699879558 473.9655172413793,201.0" fill="none" stroke="#666666" stroke-linecap="round" stroke-opacity="0.5" stroke-width="2"/><path d="M259.6793042071085,597.0896129672263 529.1379310344827,201.0" fill="none" stroke="#666666" stroke-linecap="round" stroke-opacity="0.5" stroke-width="2"/><path d="M214.72612896255853,600.5968824076192 556.7241379310344,201.0" fill="none" stroke="#666666" stroke-linecap="round" stroke-opacity="0.5" stroke-width="2"/><path d="M155.3032709106158,645.2972724900962 391.2068965517241,201.0" fill="none" stroke="#666666" stroke-linecap="round" stroke-opacity="0.5" stroke-width="2"/><path d="M156.41076262029438,557.4105827443425 363.6206896551724,201.0" fill="none" stroke="#666666" stroke-linecap="round" stroke-opacity="0.5" stroke-width="2"/><path d="M161.14969940464601,479.06931861946225 308.44827586206895,201.0" fill="none" stroke="#666666" stroke-linecap="round" stroke-opacity="0.5" stroke-width="2"/><path d="M214.361639850274,508.4550338509456 336.0344827586207,201.0" fill="none" stroke="#666666" stroke-linecap="round" stroke-opacity="0.5" stroke-width="2"/><path d="M211.92559183247062,374.81208536372526 225.68965517241378,201.0" fill="none" stroke="#666666" stroke-linecap="round" stroke-opacity="0.5" stroke-width="2"/><path d="M145.18258949057693,430.26762132279373 198.10344827586206,201.0" fill="none" stroke="#666666" stroke-linecap="round" stroke-opacity="0.5" stroke-width="2"/><path d="M212.05860650256253,433.92708168809827 253.2758620689655,201.0" fill="none" stroke="#666666" stroke-linecap="round" stroke-opacity="0.5" stroke-width="2"/><path d="M187.82102031320085,454.28421041566537 280.8620689655172,201.0" fill="none" stroke="#666666" stroke-linecap="round" stroke-opacity="0.5" stroke-width="2"/><path d="M144.32522319313648,438.17306857837855 142.9310344827586,201.0" fill="none" stroke="#666666" stroke-linecap="round" stroke-opacity="0.5" stroke-width="2"/><path d="M151.107525556194,447.9591353291101 170.51724137931035,201.0" fill="none" stroke="#666666" stroke-linecap="round" stroke-opacity="0.5" stroke-width="2"/></g><g id="backgroundLayer"><rect fill="none" height="500" stroke="grey" stroke-width="2" width="800" x="5.0" y="201.0"/></g><g id="siteLayer"><path d="M287.76375263398984,303.5842121981358 291.76375263398984,307.5842121981358 M 287.76375263398984,307.5842121981358 291.76375263398984,303.5842121981358" fill="none" id="s1" stroke="black" stroke-width="1.5"/><path d="M292.23301663284644,308.18964400210984 296.23301663284644,312.18964400210984 M 292.23301663284644,312.18964400210984 296.23301663284644,308.18964400210984" fill="none" id="s2" stroke="black" stroke-width="1.5"/><path d="M287.18687379304765,351.7005348115544 291.18687379304765,355.7005348115544 M 287.18687379304765,355.7005348115544 291.18687379304765,351.7005348115544" fill="none" id="s3" stroke="black" stroke-width="1.5"/><path d="M154.12738354053326,418.97394159610127 158.12738354053326,422.97394159610127 M 154.12738354053326,422.97394159610127 158.12738354053326,418.97394159610127" fill="none" id="s4" stroke="black" stroke-width="1.5"/><path d="M310.95167957893045,398.9589874306463 314.95167957893045,402.9589874306463 M 310.95167957893045,402.9589874306463 314.95167957893045,398.9589874306463" fill="none" id="s5" stroke="black" stroke-width="1.5"/><path d="M400.92742902633915,360.0118006627949 404.92742902633915,364.0118006627949 M 400.92742902633915,364.0118006627949 404.92742902633915,360.0118006627949" fill="none" id="s6" stroke="black" stroke-width="1.5"/><path d="M663.6747768068635,249.0 667.6747768068635,253.0 M 663.6747768068635,253.0 667.6747768068635,249.0" fill="none" id="s7" stroke="black" stroke-width="1.5"/><path d="M272.6969496228147,502.7055260206445 276.6969496228147,506.7055260206445 M 272.6969496228147,506.7055260206445 276.6969496228147,502.7055260206445" fill="none" id="s8" stroke="black" stroke-width="1.5"/><path d="M373.71725412274884,478.80426168244276 377.71725412274884,482.80426168244276 M 373.71725412274884,482.80426168244276 377.71725412274884,478.80426168244276" fill="none" id="s9" stroke="black" stroke-width="1.5"/><path d="M271.0530617978742,607.2881340520917 275.0530617978742,611.2881340520917 M 271.0530617978742,611.2881340520917 275.0530617978742,607.2881340520917" fill="none" id="s10" stroke="black" stroke-width="1.5"/><path d="M302.9014004151052,614.3189316507365 306.9014004151052,618.3189316507365 M 302.9014004151052,618.3189316507365 306.9014004151052,614.3189316507365" fill="none" id="s11" stroke="black" stroke-width="1.5"/><path d="M255.85758155150148,649.0 259.8575815515015,653.0 M 255.85758155150148,653.0 259.8575815515015,649.0" fill="none" id="s12" stroke="black" stroke-width="1.5"/><path d="M174.0377856400595,567.9825768052219 178.0377856400595,571.9825768052219 M 174.0377856400595,571.9825768052219 178.0377856400595,567.9825768052219" fill="none" id="s13" stroke="black" stroke-width="1.5"/><path d="M181.14960293203714,528.1189895864354 185.14960293203714,532.1189895864354 M 181.14960293203714,532.1189895864354 185.14960293203714,528.1189895864354" fill="none" id="s14" stroke="black" stroke-width="1.5"/><path d="M187.2220117840605,604.4461958282943 191.2220117840605,608.4461958282943 M 187.2220117840605,608.4461958282943 191.2220117840605,604.4461958282943" fill="none" id="s15" stroke="black" stroke-width="1.5"/><path d="M171.83857602560136,569.9405699879558 175.83857602560136,573.9405699879558 M 171.83857602560136,573.9405699879558 175.83857602560136,569.9405699879558" fill="none" id="s16" stroke="black" stroke-width="1.5"/><path d="M257.6793042071085,595.0896129672263 261.6793042071085,599.0896129672263 M 257.6793042071085,599.0896129672263 261.6793042071085,595.0896129672263" fill="none" id="s17" stroke="black" stroke-width="1.5"/><path d="M212.72612896255853,598.5968824076192 216.72612896255853,602.5968824076192 M 212.72612896255853,602.5968824076192 216.72612896255853,598.5968824076192" fill="none" id="s18" stroke="black" stroke-width="1.5"/><path d="M153.3032709106158,643.2972724900962 157.3032709106158,647.2972724900962 M 153.3032709106158,647.2972724900962 157.3032709106158,643.2972724900962" fill="none" id="s19" stroke="black" stroke-width="1.5"/><path d="M154.41076262029438,555.4105827443425 158.41076262029438,559.4105827443425 M 154.41076262029438,559.4105827443425 158.41076262029438,555.4105827443425" fill="none" id="s20" stroke="black" stroke-width="1.5"/><path d="M159.14969940464601,477.06931861946225 163.14969940464601,481.06931861946225 M 159.14969940464601,481.06931861946225 163.14969940464601,477.06931861946225" fill="none" id="s21" stroke="black" stroke-width="1.5"/><path d="M212.361639850274,506.4550338509456 216.361639850274,510.4550338509456 M 212.361639850274,510.4550338509456 216.361639850274,506.4550338509456" fill="none" id="s22" stroke="black" stroke-width="1.5"/><path d="M209.92559183247062,372.81208536372526 213.92559183247062,376.81208536372526 M 209.92559183247062,376.81208536372526 213.92559183247062,372.81208536372526" fill="none" id="s23" stroke="black" stroke-width="1.5"/><path d="M143.18258949057693,428.26762132279373 147.18258949057693,432.26762132279373 M 143.18258949057693,432.26762132279373 147.18258949057693,428.26762132279373" fill="none" id="s24" stroke="black" stroke-width="1.5"/><path d="M210.05860650256253,431.92708168809827 214.05860650256253,435.92708168809827 M 210.05860650256253,435.92708168809827 214.05860650256253,431.92708168809827" fill="none" id="s25" stroke="black" stroke-width="1.5"/><path d="M185.82102031320085,452.28421041566537 189.82102031320085,456.28421041566537 M 185.82102031320085,456.28421041566537 189.82102031320085,452.28421041566537" fill="none" id="s26" stroke="black" stroke-width="1.5"/><path d="M142.32522319313648,436.17306857837855 146.32522319313648,440.17306857837855 M 142.32522319313648,440.17306857837855 146.32522319313648,436.17306857837855" fill="none" id="s27" stroke="black" stroke-width="1.5"/><path d="M149.107525556194,445.9591353291101 153.107525556194,449.9591353291101 M 149.107525556194,449.9591353291101 153.107525556194,445.9591353291101" fill="none" id="s28" stroke="black" stroke-width="1.5"/></g><g id="edgeLayer"><path d="M115.34482758620689,185.0 115.34482758620689,169.0 101.55172413793103,169.0" fill="none" stroke="black" stroke-width="2"/><path d="M87.75862068965517,185.0 87.75862068965517,169.0 101.55172413793103,169.0" fill="none" stroke="black" stroke-width="2"/><path d="M60.172413793103445,185.0 60.172413793103445,153.0 80.86206896551724,153.0" fill="none" stroke="black" stroke-width="2"/><path d="M32.58620689655172,185.0 32.58620689655172,137.0 56.72413793103448,137.0" fill="none" stroke="black" stroke-width="2"/><path d="M667.0689655172414,185.0 667.0689655172414,169.0 680.8620689655172,169.0" fill="none" stroke="black" stroke-width="2"/><path d="M694.655172413793,185.0 694.655172413793,169.0 680.8620689655172,169.0" fill="none" stroke="black" stroke-width="2"/><path d="M722.2413793103448,185.0 722.2413793103448,153.0 701.5517241379309,153.0" fill="none" stroke="black" stroke-width="2"/><path d="M749.8275862068965,185.0 749.8275862068965,169.0 763.6206896551723,169.0" fill="none" stroke="black" stroke-width="2"/><path d="M777.4137931034483,185.0 777.4137931034483,169.0 763.6206896551723,169.0" fill="none" stroke="black" stroke-width="2"/><path d="M584.3103448275862,185.0 584.3103448275862,153.0 605.0,153.0" fill="none" stroke="black" stroke-width="2"/><path d="M639.4827586206897,185.0 639.4827586206897,169.0 625.6896551724137,169.0" fill="none" stroke="black" stroke-width="2"/><path d="M611.8965517241379,185.0 611.8965517241379,169.0 625.6896551724137,169.0" fill="none" stroke="black" stroke-width="2"/><path d="M418.7931034482758,185.0 418.7931034482758,105.0 467.9310344827586,105.0" fill="none" stroke="black" stroke-width="2"/><path d="M446.37931034482756,185.0 446.37931034482756,137.0 477.41379310344826,137.0" fill="none" stroke="black" stroke-width="2"/><path d="M501.551724137931,185.0 501.551724137931,169.0 487.7586206896551,169.0" fill="none" stroke="black" stroke-width="2"/><path d="M473.9655172413793,185.0 473.9655172413793,169.0 487.7586206896551,169.0" fill="none" stroke="black" stroke-width="2"/><path d="M529.1379310344827,185.0 529.1379310344827,153.0 508.4482758620689,153.0" fill="none" stroke="black" stroke-width="2"/><path d="M556.7241379310344,185.0 556.7241379310344,121.0 517.0689655172414,121.0" fill="none" stroke="black" stroke-width="2"/><path d="M391.2068965517241,185.0 391.2068965517241,89.0 429.5689655172414,89.0" fill="none" stroke="black" stroke-width="2"/><path d="M363.6206896551724,185.0 363.6206896551724,73.0 396.59482758620686,73.0" fill="none" stroke="black" stroke-width="2"/><path d="M308.44827586206895,185.0 308.44827586206895,169.0 322.2413793103448,169.0" fill="none" stroke="black" stroke-width="2"/><path d="M336.0344827586207,185.0 336.0344827586207,169.0 322.2413793103448,169.0" fill="none" stroke="black" stroke-width="2"/><path d="M225.68965517241378,185.0 225.68965517241378,169.0 211.8965517241379,169.0" fill="none" stroke="black" stroke-width="2"/><path d="M198.10344827586206,185.0 198.10344827586206,169.0 211.8965517241379,169.0" fill="none" stroke="black" stroke-width="2"/><path d="M253.2758620689655,185.0 253.2758620689655,169.0 267.06896551724134,169.0" fill="none" stroke="black" stroke-width="2"/><path d="M280.8620689655172,185.0 280.8620689655172,169.0 267.06896551724134,169.0" fill="none" stroke="black" stroke-width="2"/><path d="M142.9310344827586,185.0 142.9310344827586,169.0 156.72413793103448,169.0" fill="none" stroke="black" stroke-width="2"/><path d="M170.51724137931035,185.0 170.51724137931035,169.0 156.72413793103448,169.0" fill="none" stroke="black" stroke-width="2"/><path d="M101.55172413793103,169.0 101.55172413793103,153.0 80.86206896551724,153.0" fill="none" stroke="black" stroke-width="2"/><path d="M80.86206896551724,153.0 80.86206896551724,137.0 56.72413793103448,137.0" fill="none" stroke="black" stroke-width="2"/><path d="M56.72413793103448,137.0 56.72413793103448,9.0 237.23329741379308,9.0" fill="none" stroke="black" stroke-width="2"/><path d="M680.8620689655172,169.0 680.8620689655172,153.0 701.5517241379309,153.0" fill="none" stroke="black" stroke-width="2"/><path d="M701.5517241379309,153.0 701.5517241379309,137.0 732.5862068965516,137.0" fill="none" stroke="black" stroke-width="2"/><path d="M763.6206896551723,169.0 763.6206896551723,137.0 732.5862068965516,137.0" fill="none" stroke="black" stroke-width="2"/><path d="M732.5862068965516,137.0 732.5862068965516,41.0 616.6918103448276,41.0" fill="none" stroke="black" stroke-width="2"/><path d="M625.6896551724137,169.0 625.6896551724137,153.0 605.0,153.0" fill="none" stroke="black" stroke-width="2"/><path d="M605.0,153.0 605.0,57.0 500.79741379310343,57.0" fill="none" stroke="black" stroke-width="2"/><path d="M487.7586206896551,169.0 487.7586206896551,153.0 508.4482758620689,153.0" fill="none" stroke="black" stroke-width="2"/><path d="M508.4482758620689,153.0 508.4482758620689,137.0 477.41379310344826,137.0" fill="none" stroke="black" stroke-width="2"/><path d="M477.41379310344826,137.0 477.41379310344826,121.0 517.0689655172414,121.0" fill="none" stroke="black" stroke-width="2"/><path d="M517.0689655172414,121.0 517.0689655172414,105.0 467.9310344827586,105.0" fill="none" stroke="black" stroke-width="2"/><path d="M467.9310344827586,105.0 467.9310344827586,89.0 429.5689655172414,89.0" fill="none" stroke="black" stroke-width="2"/><path d="M429.5689655172414,89.0 429.5689655172414,73.0 396.59482758620686,73.0" fill="none" stroke="black" stroke-width="2"/><path d="M396.59482758620686,73.0 396.59482758620686,57.0 500.79741379310343,57.0" fill="none" stroke="black" stroke-width="2"/><path d="M500.79741379310343,57.0 500.79741379310343,41.0 616.6918103448276,41.0" fill="none" stroke="black" stroke-width="2"/><path d="M616.6918103448276,41.0 616.6918103448276,25.0 417.7424568965517,25.0" fill="none" stroke="black" stroke-width="2"/><path d="M322.2413793103448,169.0 322.2413793103448,137.0 280.8620689655172,137.0" fill="none" stroke="black" stroke-width="2"/><path d="M211.8965517241379,169.0 211.8965517241379,153.0 239.48275862068962,153.0" fill="none" stroke="black" stroke-width="2"/><path d="M267.06896551724134,169.0 267.06896551724134,153.0 239.48275862068962,153.0" fill="none" stroke="black" stroke-width="2"/><path d="M239.48275862068962,153.0 239.48275862068962,137.0 280.8620689655172,137.0" fill="none" stroke="black" stroke-width="2"/><path d="M280.8620689655172,137.0 280.8620689655172,121.0 218.79310344827584,121.0" fill="none" stroke="black" stroke-width="2"/><path d="M156.72413793103448,169.0 156.72413793103448,121.0 218.79310344827584,121.0" fill="none" stroke="black" stroke-width="2"/><path d="M218.79310344827584,121.0 218.79310344827584,25.0 417.7424568965517,25.0" fill="none" stroke="black" stroke-width="2"/><path d="M417.7424568965517,25.0 417.7424568965517,9.0 237.23329741379308,9.0" fill="none" stroke="black" stroke-width="2"/></g><g id="vertexLayer"><circle cx="115.34482758620689" cy="185.0" fill="white" id="v1" r="2.5" stroke="black" stroke-width="1"/><circle cx="87.75862068965517" cy="185.0" fill="white" id="v2" r="2.5" stroke="black" stroke-width="1"/><circle cx="60.172413793103445" cy="185.0" fill="white" id="v3" r="2.5" stroke="black" stroke-width="1"/><circle cx="32.58620689655172" cy="185.0" fill="white" id="v4" r="2.5" stroke="black" stroke-width="1"/><circle cx="667.0689655172414" cy="185.0" fill="white" id="v5" r="2.5" stroke="black" stroke-width="1"/><circle cx="694.655172413793" cy="185.0" fill="white" id="v6" r="2.5" stroke="black" stroke-width="1"/><circle cx="722.2413793103448" cy="185.0" fill="white" id="v7" r="2.5" stroke="black" stroke-width="1"/><circle cx="749.8275862068965" cy="185.0" fill="white" id="v8" r="2.5" stroke="black" stroke-width="1"/><circle cx="777.4137931034483" cy="185.0" fill="white" id="v9" r="2.5" stroke="black" stroke-width="1"/><circle cx="584.3103448275862" cy="185.0" fill="white" id="v10" r="2.5" stroke="black" stroke-width="1"/><circle cx="639.4827586206897" cy="185.0" fill="white" id="v11" r="2.5" stroke="black" stroke-width="1"/><circle cx="611.8965517241379" cy="185.0" fill="white" id="v12" r="2.5" stroke="black" stroke-width="1"/><circle cx="418.7931034482758" cy="185.0" fill="white" id="v13" r="2.5" stroke="black" stroke-width="1"/><circle cx="446.37931034482756" cy="185.0" fill="white" id="v14" r="2.5" stroke="black" stroke-width="1"/><circle cx="501.551724137931" cy="185.0" fill="white" id="v15" r="2.5" stroke="black" stroke-width="1"/><circle cx="473.9655172413793" cy="185.0" fill="white" id="v16" r="2.5" stroke="black" stroke-width="1"/><circle cx="529.1379310344827" cy="185.0" fill="white" id="v17" r="2.5" stroke="black" stroke-width="1"/><circle cx="556.7241379310344" cy="185.0" fill="white" id="v18" r="2.5" stroke="black" stroke-width="1"/><circle cx="391.2068965517241" cy="185.0" fill="white" id="v19" r="2.5" stroke="black" stroke-width="1"/><circle cx="363.6206896551724" cy="185.0" fill="white" id="v20" r="2.5" stroke="black" stroke-width="1"/><circle cx="308.44827586206895" cy="185.0" fill="white" id="v21" r="2.5" stroke="black" stroke-width="1"/><circle cx="336.0344827586207" cy="185.0" fill="white" id="v22" r="2.5" stroke="black" stroke-width="1"/><circle cx="225.68965517241378" cy="185.0" fill="white" id="v23" r="2.5" stroke="black" stroke-width="1"/><circle cx="198.10344827586206" cy="185.0" fill="white" id="v24" r="2.5" stroke="black" stroke-width="1"/><circle cx="253.2758620689655" cy="185.0" fill="white" id="v25" r="2.5" stroke="black" stroke-width="1"/><circle cx="280.8620689655172" cy="185.0" fill="white" id="v26" r="2.5" stroke="black" stroke-width="1"/><circle cx="142.9310344827586" cy="185.0" fill="white" id="v27" r="2.5" stroke="black" stroke-width="1"/><circle cx="170.51724137931035" cy="185.0" fill="white" id="v28" r="2.5" stroke="black" stroke-width="1"/><circle cx="101.55172413793103" cy="169.0" fill="black" id="v29" r="2.5" stroke="black" stroke-width="1"/><circle cx="80.86206896551724" cy="153.0" fill="black" id="v30" r="2.5" stroke="black" stroke-width="1"/><circle cx="56.72413793103448" cy="137.0" fill="black" id="v31" r="2.5" stroke="black" stroke-width="1"/><circle cx="680.8620689655172" cy="169.0" fill="black" id="v32" r="2.5" stroke="black" stroke-width="1"/><circle cx="701.5517241379309" cy="153.0" fill="black" id="v33" r="2.5" stroke="black" stroke-width="1"/><circle cx="763.6206896551723" cy="169.0" fill="black" id="v34" r="2.5" stroke="black" stroke-width="1"/><circle cx="732.5862068965516" cy="137.0" fill="black" id="v35" r="2.5" stroke="black" stroke-width="1"/><circle cx="625.6896551724137" cy="169.0" fill="black" id="v36" r="2.5" stroke="black" stroke-width="1"/><circle cx="605.0" cy="153.0" fill="black" id="v37" r="2.5" stroke="black" stroke-width="1"/><circle cx="487.7586206896551" cy="169.0" fill="black" id="v38" r="2.5" stroke="black" stroke-width="1"/><circle cx="508.4482758620689" cy="153.0" fill="black" id="v39" r="2.5" stroke="black" stroke-width="1"/><circle cx="477.41379310344826" cy="137.0" fill="black" id="v40" r="2.5" stroke="black" stroke-width="1"/><circle cx="517.0689655172414" cy="121.0" fill="black" id="v41" r="2.5" stroke="black" stroke-width="1"/><circle cx="467.9310344827586" cy="105.0" fill="black" id="v42" r="2.5" stroke="black" stroke-width="1"/><circle cx="429.5689655172414" cy="89.0" fill="black" id="v43" r="2.5" stroke="black" stroke-width="1"/><circle cx="396.59482758620686" cy="73.0" fill="black" id="v44" r="2.5" stroke="black" stroke-width="1"/><circle cx="500.79741379310343" cy="57.0" fill="black" id="v45" r="2.5" stroke="black" stroke-width="1"/><circle cx="616.6918103448276" cy="41.0" fill="black" id="v46" r="2.5" stroke="black" stroke-width="1"/><circle cx="322.2413793103448" cy="169.0" fill="black" id="v47" r="2.5" stroke="black" stroke-width="1"/><circle cx="211.8965517241379" cy="169.0" fill="black" id="v48" r="2.5" stroke="black" stroke-width="1"/><circle cx="267.06896551724134" cy="169.0" fill="black" id="v49" r="2.5" stroke="black" stroke-width="1"/><circle cx="239.48275862068962" cy="153.0" fill="black" id="v50" r="2.5" stroke="black" stroke-width="1"/><circle cx="280.8620689655172" cy="137.0" fill="black" id="v51" r="2.5" stroke="black" stroke-width="1"/><circle cx="156.72413793103448" cy="169.0" fill="black" id="v52" r="2.5" stroke="black" stroke-width="1"/><circle cx="218.79310344827584" cy="121.0" fill="black" id="v53" r="2.5" stroke="black" stroke-width="1"/><circle cx="417.7424568965517" cy="25.0" fill="black" id="v54" r="2.5" stroke="black" stroke-width="1"/><circle cx="237.23329741379308" cy="9.0" fill="black" id="v55" r="2.5" stroke="black" stroke-width="1"/></g></svg>