<?xml version="1.0" encoding="UTF-8" standalone="no"?><svg xmlns="http://www.w3.org/2000/svg" height="821" version="1.1" viewport="0 0 810 701" width="860"><g id="labelLayer"><text dominant-baseline="middle" style="font-size: smaller;" text-anchor="middle" x="263.53790838979126" y="342.04660933517846">1</text><text dominant-baseline="middle" style="font-size: smaller;" text-anchor="middle" x="87.75862068965517" y="195.0">1</text><text dominant-baseline="middle" style="font-size: smaller;" text-anchor="middle" x="269.024302191113" y="345.1329387980355">2</text><text dominant-baseline="middle" style="font-size: smaller;" text-anchor="middle" x="115.34482758620689" y="195.0">2</text><text dominant-baseline="middle" style="font-size: smaller;" text-anchor="middle" x="262.8297415645894" y="375.0074266555369">3</text><text dominant-baseline="middle" style="font-size: smaller;" text-anchor="middle" x="60.172413793103445" y="195.0">3</text><text dominant-baseline="middle" style="font-size: smaller;" text-anchor="middle" x="99.48813482236206" y="423.79639371812544">4</text><text dominant-baseline="middle" style="font-size: smaller;" text-anchor="middle" x="32.58620689655172" y="195.0">4</text><text dominant-baseline="middle" style="font-size: smaller;" text-anchor="middle" x="292.00302002534715" y="408.9461886392692">5</text><text dominant-baseline="middle" style="font-size: smaller;" text-anchor="middle" x="667.0689655172414" y="195.0">5</text><text dominant-baseline="middle" style="font-size: smaller;" text-anchor="middle" x="402.45574650644915" y="380.86267065639095">6</text><text dominant-baseline="middle" style="font-size: smaller;" text-anchor="middle" x="694.655172413793" y="195.0">6</text><text dominant-baseline="middle" style="font-size: smaller;" text-anchor="middle" x="725.0" y="306.54952536516237">7</text><text dominant-baseline="middle" style="font-size: smaller;" text-anchor="middle" x="722.2413793103448" y="195.0">7</text><text dominant-baseline="middle" style="font-size: smaller;" text-anchor="middle" x="245.04215278721438" y="489.0560077428014">8</text><text dominant-baseline="middle" style="font-size: smaller;" text-anchor="middle" x="749.8275862068965" y="195.0">8</text><text dominant-baseline="middle" style="font-size: smaller;" text-anchor="middle" x="369.052990490664" y="469.90710579517634">9</text><text dominant-baseline="middle" style="font-size: smaller;" text-anchor="middle" x="777.4137931034483" y="195.0">9</text><text dominant-baseline="middle" style="font-size: smaller;" text-anchor="middle" x="243.024143563519" y="577.7987176678415">10</text><text dominant-baseline="middle" style="font-size: smaller;" text-anchor="middle" x="584.3103448275862" y="195.0">10</text><text dominant-baseline="middle" style="font-size: smaller;" text-anchor="middle" x="282.1206318480947" y="584.0550787175569">11</text><text dominant-baseline="middle" style="font-size: smaller;" text-anchor="middle" x="639.4827586206897" y="195.0">11</text><text dominant-baseline="middle" style="font-size: smaller;" text-anchor="middle" x="224.37042593727554" y="615.4504746348376">12</text><text dominant-baseline="middle" style="font-size: smaller;" text-anchor="middle" x="611.8965517241379" y="195.0">12</text><text dominant-baseline="middle" style="font-size: smaller;" text-anchor="middle" x="123.92981172679445" y="543.4970334975998">13</text><text dominant-baseline="middle" style="font-size: smaller;" text-anchor="middle" x="418.7931034482758" y="195.0">13</text><text dominant-baseline="middle" style="font-size: smaller;" text-anchor="middle" x="132.66015979234209" y="509.87682234541444">14</text><text dominant-baseline="middle" style="font-size: smaller;" text-anchor="middle" x="446.37931034482756" y="195.0">14</text><text dominant-baseline="middle" style="font-size: smaller;" text-anchor="middle" x="140.11454742604542" y="575.280199560169">15</text><text dominant-baseline="middle" style="font-size: smaller;" text-anchor="middle" x="501.551724137931" y="195.0">15</text><text dominant-baseline="middle" style="font-size: smaller;" text-anchor="middle" x="121.23009875399688" y="545.1786723535954">16</text><text dominant-baseline="middle" style="font-size: smaller;" text-anchor="middle" x="473.9655172413793" y="195.0">16</text><text dominant-baseline="middle" style="font-size: smaller;" text-anchor="middle" x="226.60674222738655" y="567.0306772455373">17</text><text dominant-baseline="middle" style="font-size: smaller;" text-anchor="middle" x="529.1379310344827" y="195.0">17</text><text dominant-baseline="middle" style="font-size: smaller;" text-anchor="middle" x="171.42297548759956" y="570.1153738425317">18</text><text dominant-baseline="middle" style="font-size: smaller;" text-anchor="middle" x="556.7241379310344" y="195.0">18</text><text dominant-baseline="middle" style="font-size: smaller;" text-anchor="middle" x="98.4764679292166" y="610.2270787286498">19</text><text dominant-baseline="middle" style="font-size: smaller;" text-anchor="middle" x="391.2068965517241" y="195.0">19</text><text dominant-baseline="middle" style="font-size: smaller;" text-anchor="middle" x="99.83600624526822" y="532.7671169434792">20</text><text dominant-baseline="middle" style="font-size: smaller;" text-anchor="middle" x="363.6206896551724" y="195.0">20</text><text dominant-baseline="middle" style="font-size: smaller;" text-anchor="middle" x="105.65344585169429" y="468.5334041426206">21</text><text dominant-baseline="middle" style="font-size: smaller;" text-anchor="middle" x="308.44827586206895" y="195.0">21</text><text dominant-baseline="middle" style="font-size: smaller;" text-anchor="middle" x="170.97553474415759" y="492.09801909632193">22</text><text dominant-baseline="middle" style="font-size: smaller;" text-anchor="middle" x="336.0344827586207" y="195.0">22</text><text dominant-baseline="middle" style="font-size: smaller;" text-anchor="middle" x="167.98508290510352" y="389.9747721114942">23</text><text dominant-baseline="middle" style="font-size: smaller;" text-anchor="middle" x="225.68965517241378" y="195.0">23</text><text dominant-baseline="middle" style="font-size: smaller;" text-anchor="middle" x="86.05248853971098" y="430.7893192602186">24</text><text dominant-baseline="middle" style="font-size: smaller;" text-anchor="middle" x="198.10344827586206" y="195.0">24</text><text dominant-baseline="middle" style="font-size: smaller;" text-anchor="middle" x="168.1483694913656" y="433.5598666640784">25</text><text dominant-baseline="middle" style="font-size: smaller;" text-anchor="middle" x="253.2758620689655" y="195.0">25</text><text dominant-baseline="middle" style="font-size: smaller;" text-anchor="middle" x="138.39471370769817" y="449.1484110895109">26</text><text dominant-baseline="middle" style="font-size: smaller;" text-anchor="middle" x="280.8620689655172" y="195.0">26</text><text dominant-baseline="middle" style="font-size: smaller;" text-anchor="middle" x="85.0" y="436.7865515969528">27</text><text dominant-baseline="middle" style="font-size: smaller;" text-anchor="middle" x="142.9310344827586" y="195.0">27</text><text dominant-baseline="middle" style="font-size: smaller;" text-anchor="middle" x="93.32584104516728" y="444.27288660622924">28</text><text dominant-baseline="middle" style="font-size: smaller;" text-anchor="middle" x="170.51724137931035" y="195.0">28</text></g><g id="leaderLayer"><path d="M263.53790838979126,332.04660933517846 87.75862068965517,201.0" fill="none" stroke="#666666" stroke-linecap="round" stroke-opacity="0.5" stroke-width="2"/><path d="M269.024302191113,335.1329387980355 115.34482758620689,201.0" fill="none" stroke="#666666" stroke-linecap="round" stroke-opacity="0.5" stroke-width="2"/><path d="M262.8297415645894,365.0074266555369 60.172413793103445,201.0" fill="none" stroke="#666666" stroke-linecap="round" stroke-opacity="0.5" stroke-width="2"/><path d="M99.48813482236206,413.79639371812544 32.58620689655172,201.0" fill="none" stroke="#666666" stroke-linecap="round" stroke-opacity="0.5" stroke-width="2"/><path d="M292.00302002534715,398.9461886392692 667.0689655172414,201.0" fill="none" stroke="#666666" stroke-linecap="round" stroke-opacity="0.5" stroke-width="2"/><path d="M402.45574650644915,370.86267065639095 694.655172413793,201.0" fill="none" stroke="#666666" stroke-linecap="round" stroke-opacity="0.5" stroke-width="2"/><path d="M725.0,296.54952536516237 722.2413793103448,201.0" fill="none" stroke="#666666" stroke-linecap="round" stroke-opacity="0.5" stroke-width="2"/><path d="M245.04215278721438,479.0560077428014 749.8275862068965,201.0" fill="none" stroke="#666666" stroke-linecap="round" stroke-opacity="0.5" stroke-width="2"/><path d="M369.052990490664,459.90710579517634 777.4137931034483,201.0" fill="none" stroke="#666666" stroke-linecap="round" stroke-opacity="0.5" stroke-width="2"/><path d="M243.024143563519,567.7987176678415 584.3103448275862,201.0" fill="none" stroke="#666666" stroke-linecap="round" stroke-opacity="0.5" stroke-width="2"/><path d="M282.1206318480947,574.0550787175569 639.4827586206897,201.0" fill="none" stroke="#666666" stroke-linecap="round" stroke-opacity="0.5" stroke-width="2"/><path d="M224.37042593727554,605.4504746348376 611.8965517241379,201.0" fill="none" stroke="#666666" stroke-linecap="round" stroke-opacity="0.5" stroke-width="2"/><path d="M123.92981172679445,533.4970334975998 418.7931034482758,201.0" fill="none" stroke="#666666" stroke-linecap="round" stroke-opacity="0.5" stroke-width="2"/><path d="M132.66015979234209,499.87682234541444 446.37931034482756,201.0" fill="none" stroke="#666666" stroke-linecap="round" stroke-opacity="0.5" stroke-width="2"/><path d="M140.11454742604542,565.280199560169 501.551724137931,201.0" fill="none" stroke="#666666" stroke-linecap="round" stroke-opacity="0.5" stroke-width="2"/><path d="M121.23009875399688,535.1786723535954 473.9655172413793,201.0" fill="none" stroke="#666666" stroke-linecap="round" stroke-opacity="0.5" stroke-width="2"/><path d="M226.60674222738655,557.0306772455373 529.1379310344827,201.0" fill="none" stroke="#666666" stroke-linecap="round" stroke-opacity="0.5" stroke-width="2"/><path d="M171.42297548759956,560.1153738425317 556.7241379310344,201.0" fill="none" stroke="#666666" stroke-linecap="round" stroke-opacity="0.5" stroke-width="2"/><path d="M98.4764679292166,600.2270787286498 391.2068965517241,201.0" fill="none" stroke="#666666" stroke-linecap="round" stroke-opacity="0.5" stroke-width="2"/><path d="M99.83600624526822,522.7671169434792 363.6206896551724,201.0" fill="none" stroke="#666666" stroke-linecap="round" stroke-opacity="0.5" stroke-width="2"/><path d="M105.65344585169429,458.5334041426206 308.44827586206895,201.0" fill="none" stroke="#666666" stroke-linecap="round" stroke-opacity="0.5" stroke-width="2"/><path d="M170.97553474415759,482.09801909632193 336.0344827586207,201.0" fill="none" stroke="#666666" stroke-linecap="round" stroke-opacity="0.5" stroke-width="2"/><path d="M167.98508290510352,379.9747721114942 225.68965517241378,201.0" fill="none" stroke="#666666" stroke-linecap="round" stroke-opacity="0.5" stroke-width="2"/><path d="M86.05248853971098,420.7893192602186 198.10344827586206,201.0" fill="none" stroke="#666666" stroke-linecap="round" stroke-opacity="0.5" stroke-width="2"/><path d="M168.1483694913656,423.5598666640784 253.2758620689655,201.0" fill="none" stroke="#666666" stroke-linecap="round" stroke-opacity="0.5" stroke-width="2"/><path d="M138.39471370769817,439.1484110895109 280.8620689655172,201.0" fill="none" stroke="#666666" stroke-linecap="round" stroke-opacity="0.5" stroke-width="2"/><path d="M85.0,426.7865515969528 142.9310344827586,201.0" fill="none" stroke="#666666" stroke-linecap="round" stroke-opacity="0.5" stroke-width="2"/><path d="M93.32584104516728,434.27288660622924 170.51724137931035,201.0" fill="none" stroke="#666666" stroke-linecap="round" stroke-opacity="0.5" stroke-width="2"/></g><g id="backgroundLayer"><rect fill="none" height="500" stroke="grey" stroke-width="2" width="800" x="5.0" y="201.0"/></g><g id="siteLayer"><path d="M261.53790838979126,330.04660933517846 265.53790838979126,334.04660933517846 M 261.53790838979126,334.04660933517846 265.53790838979126,330.04660933517846" fill="none" id="s1" stroke="black" stroke-width="1.5"/><path d="M267.024302191113,333.1329387980355 271.024302191113,337.1329387980355 M 267.024302191113,337.1329387980355 271.024302191113,333.1329387980355" fill="none" id="s2" stroke="black" stroke-width="1.5"/><path d="M260.8297415645894,363.0074266555369 264.8297415645894,367.0074266555369 M 260.8297415645894,367.0074266555369 264.8297415645894,363.0074266555369" fill="none" id="s3" stroke="black" stroke-width="1.5"/><path d="M97.48813482236206,411.79639371812544 101.48813482236206,415.79639371812544 M 97.48813482236206,415.79639371812544 101.48813482236206,411.79639371812544" fill="none" id="s4" stroke="black" stroke-width="1.5"/><path d="M290.00302002534715,396.9461886392692 294.00302002534715,400.9461886392692 M 290.00302002534715,400.9461886392692 294.00302002534715,396.9461886392692" fill="none" id="s5" stroke="black" stroke-width="1.5"/><path d="M400.45574650644915,368.86267065639095 404.45574650644915,372.86267065639095 M 400.45574650644915,372.86267065639095 404.45574650644915,368.86267065639095" fill="none" id="s6" stroke="black" stroke-width="1.5"/><path d="M723.0,294.54952536516237 727.0,298.54952536516237 M 723.0,298.54952536516237 727.0,294.54952536516237" fill="none" id="s7" stroke="black" stroke-width="1.5"/><path d="M243.04215278721438,477.0560077428014 247.04215278721438,481.0560077428014 M 243.04215278721438,481.0560077428014 247.04215278721438,477.0560077428014" fill="none" id="s8" stroke="black" stroke-width="1.5"/><path d="M367.052990490664,457.90710579517634 371.052990490664,461.90710579517634 M 367.052990490664,461.90710579517634 371.052990490664,457.90710579517634" fill="none" id="s9" stroke="black" stroke-width="1.5"/><path d="M241.024143563519,565.7987176678415 245.024143563519,569.7987176678415 M 241.024143563519,569.7987176678415 245.024143563519,565.7987176678415" fill="none" id="s10" stroke="black" stroke-width="1.5"/><path d="M280.1206318480947,572.0550787175569 284.1206318480947,576.0550787175569 M 280.1206318480947,576.0550787175569 284.1206318480947,572.0550787175569" fill="none" id="s11" stroke="black" stroke-width="1.5"/><path d="M222.37042593727554,603.4504746348376 226.37042593727554,607.4504746348376 M 222.37042593727554,607.4504746348376 226.37042593727554,603.4504746348376" fill="none" id="s12" stroke="black" stroke-width="1.5"/><path d="M121.92981172679445,531.4970334975998 125.92981172679445,535.4970334975998 M 121.92981172679445,535.4970334975998 125.92981172679445,531.4970334975998" fill="none" id="s13" stroke="black" stroke-width="1.5"/><path d="M130.66015979234209,497.87682234541444 134.66015979234209,501.87682234541444 M 130.66015979234209,501.87682234541444 134.66015979234209,497.87682234541444" fill="none" id="s14" stroke="black" stroke-width="1.5"/><path d="M138.11454742604542,563.280199560169 142.11454742604542,567.280199560169 M 138.11454742604542,567.280199560169 142.11454742604542,563.280199560169" fill="none" id="s15" stroke="black" stroke-width="1.5"/><path d="M119.23009875399688,533.1786723535954 123.23009875399688,537.1786723535954 M 119.23009875399688,537.1786723535954 123.23009875399688,533.1786723535954" fill="none" id="s16" stroke="black" stroke-width="1.5"/><path d="M224.60674222738655,555.0306772455373 228.60674222738655,559.0306772455373 M 224.60674222738655,559.0306772455373 228.60674222738655,555.0306772455373" fill="none" id="s17" stroke="black" stroke-width="1.5"/><path d="M169.42297548759956,558.1153738425317 173.42297548759956,562.1153738425317 M 169.42297548759956,562.1153738425317 173.42297548759956,558.1153738425317" fill="none" id="s18" stroke="black" stroke-width="1.5"/><path d="M96.4764679292166,598.2270787286498 100.4764679292166,602.2270787286498 M 96.4764679292166,602.2270787286498 100.4764679292166,598.2270787286498" fill="none" id="s19" stroke="black" stroke-width="1.5"/><path d="M97.83600624526822,520.7671169434792 101.83600624526822,524.7671169434792 M 97.83600624526822,524.7671169434792 101.83600624526822,520.7671169434792" fill="none" id="s20" stroke="black" stroke-width="1.5"/><path d="M103.65344585169429,456.5334041426206 107.65344585169429,460.5334041426206 M 103.65344585169429,460.5334041426206 107.65344585169429,456.5334041426206" fill="none" id="s21" stroke="black" stroke-width="1.5"/><path d="M168.97553474415759,480.09801909632193 172.97553474415759,484.09801909632193 M 168.97553474415759,484.09801909632193 172.97553474415759,480.09801909632193" fill="none" id="s22" stroke="black" stroke-width="1.5"/><path d="M165.98508290510352,377.9747721114942 169.98508290510352,381.9747721114942 M 165.98508290510352,381.9747721114942 169.98508290510352,377.9747721114942" fill="none" id="s23" stroke="black" stroke-width="1.5"/><path d="M84.05248853971098,418.7893192602186 88.05248853971098,422.7893192602186 M 84.05248853971098,422.7893192602186 88.05248853971098,418.7893192602186" fill="none" id="s24" stroke="black" stroke-width="1.5"/><path d="M166.1483694913656,421.5598666640784 170.1483694913656,425.5598666640784 M 166.1483694913656,425.5598666640784 170.1483694913656,421.5598666640784" fill="none" id="s25" stroke="black" stroke-width="1.5"/><path d="M136.39471370769817,437.1484110895109 140.39471370769817,441.1484110895109 M 136.39471370769817,441.1484110895109 140.39471370769817,437.1484110895109" fill="none" id="s26" stroke="black" stroke-width="1.5"/><path d="M83.0,424.7865515969528 87.0,428.7865515969528 M 83.0,428.7865515969528 87.0,424.7865515969528" fill="none" id="s27" stroke="black" stroke-width="1.5"/><path d="M91.32584104516728,432.27288660622924 95.32584104516728,436.27288660622924 M 91.32584104516728,436.27288660622924 95.32584104516728,432.27288660622924" fill="none" id="s28" stroke="black" stroke-width="1.5"/></g><g id="edgeLayer"><path d="M87.75862068965517,185.0 87.75862068965517,169.0 101.55172413793103,169.0" fill="none" stroke="black" stroke-width="2"/><path d="M115.34482758620689,185.0 115.34482758620689,169.0 101.55172413793103,169.0" fill="none" stroke="black" stroke-width="2"/><path d="M60.172413793103445,185.0 60.172413793103445,153.0 80.86206896551724,153.0" fill="none" stroke="black" stroke-width="2"/><path d="M32.58620689655172,185.0 32.58620689655172,137.0 56.72413793103448,137.0" fill="none" stroke="black" stroke-width="2"/><path d="M667.0689655172414,185.0 667.0689655172414,169.0 680.8620689655172,169.0" fill="none" stroke="black" stroke-width="2"/><path d="M694.655172413793,185.0 694.655172413793,169.0 680.8620689655172,169.0" fill="none" stroke="black" stroke-width="2"/><path d="M722.2413793103448,185.0 722.2413793103448,153.0 701.5517241379309,153.0" fill="none" stroke="black" stroke-width="2"/><path d="M749.8275862068965,185.0 749.8275862068965,169.0 763.6206896551723,169.0" fill="none" stroke="black" stroke-width="2"/><path d="M777.4137931034483,185.0 777.4137931034483,169.0 763.6206896551723,169.0" fill="none" stroke="black" stroke-width="2"/><path d="M584.3103448275862,185.0 584.3103448275862,153.0 605.0,153.0" fill="none" stroke="black" stroke-width="2"/><path d="M639.4827586206897,185.0 639.4827586206897,169.0 625.6896551724137,169.0" fill="none" stroke="black" stroke-width="2"/><path d="M611.8965517241379,185.0 611.8965517241379,169.0 625.6896551724137,169.0" fill="none" stroke="black" stroke-width="2"/><path d="M418.7931034482758,185.0 418.7931034482758,105.0 467.9310344827586,105.0" fill="none" stroke="black" stroke-width="2"/><path d="M446.37931034482756,185.0 446.37931034482756,137.0 477.41379310344826,137.0" fill="none" stroke="black" stroke-width="2"/><path d="M501.551724137931,185.0 501.551724137931,169.0 487.7586206896551,169.0" fill="none" stroke="black" stroke-width="2"/><path d="M473.9655172413793,185.0 473.9655172413793,169.0 487.7586206896551,169.0" fill="none" stroke="black" stroke-width="2"/><path d="M529.1379310344827,185.0 529.1379310344827,153.0 508.4482758620689,153.0" fill="none" stroke="black" stroke-width="2"/><path d="M556.7241379310344,185.0 556.7241379310344,121.0 517.0689655172414,121.0" fill="none" stroke="black" stroke-width="2"/><path d="M391.2068965517241,185.0 391.2068965517241,89.0 429.5689655172414,89.0" fill="none" stroke="black" stroke-width="2"/><path d="M363.6206896551724,185.0 363.6206896551724,73.0 396.59482758620686,73.0" fill="none" stroke="black" stroke-width="2"/><path d="M308.44827586206895,185.0 308.44827586206895,169.0 322.2413793103448,169.0" fill="none" stroke="black" stroke-width="2"/><path d="M336.0344827586207,185.0 336.0344827586207,169.0 322.2413793103448,169.0" fill="none" stroke="black" stroke-width="2"/><path d="M225.68965517241378,185.0 225.68965517241378,169.0 211.8965517241379,169.0" fill="none" stroke="black" stroke-width="2"/><path d="M198.10344827586206,185.0 198.10344827586206,169.0 211.8965517241379,169.0" fill="none" stroke="black" stroke-width="2"/><path d="M253.2758620689655,185.0 253.2758620689655,169.0 267.06896551724134,169.0" fill="none" stroke="black" stroke-width="2"/><path d="M280.8620689655172,185.0 280.8620689655172,169.0 267.06896551724134,169.0" fill="none" stroke="black" stroke-width="2"/><path d="M142.9310344827586,185.0 142.9310344827586,169.0 156.72413793103448,169.0" fill="none" stroke="black" stroke-width="2"/><path d="M170.51724137931035,185.0 170.51724137931035,169.0 156.72413793103448,169.0" fill="none" stroke="black" stroke-width="2"/><path d="M101.55172413793103,169.0 101.55172413793103,153.0 80.86206896551724,153.0" fill="none" stroke="black" stroke-width="2"/><path d="M80.86206896551724,153.0 80.86206896551724,137.0 56.72413793103448,137.0" fill="none" stroke="black" stroke-width="2"/><path d="M56.72413793103448,137.0 56.72413793103448,9.0 237.23329741379308,9.0" fill="none" stroke="black" stroke-width="2"/><path d="M680.8620689655172,169.0 680.8620689655172,153.0 701.5517241379309,153.0" fill="none" stroke="black" stroke-width="2"/><path d="M701.5517241379309,153.0 701.5517241379309,137.0 732.5862068965516,137.0" fill="none" stroke="black" stroke-width="2"/><path d="M763.6206896551723,169.0 763.6206896551723,137.0 732.5862068965516,137.0" fill="none" stroke="black" stroke-width="2"/><path d="M732.5862068965516,137.0 732.5862068965516,41.0 616.6918103448276,41.0" fill="none" stroke="black" stroke-width="2"/><path d="M625.6896551724137,169.0 625.6896551724137,153.0 605.0,153.0" fill="none" stroke="black" stroke-width="2"/><path d="M605.0,153.0 605.0,57.0 500.79741379310343,57.0" fill="none" stroke="black" stroke-width="2"/><path d="M487.7586206896551,169.0 487.7586206896551,153.0 508.4482758620689,153.0" fill="none" stroke="black" stroke-width="2"/><path d="M508.4482758620689,153.0 508.4482758620689,137.0 477.41379310344826,137.0" fill="none" stroke="black" stroke-width="2"/><path d="M477.41379310344826,137.0 477.41379310344826,121.0 517.0689655172414,121.0" fill="none" stroke="black" stroke-width="2"/><path d="M517.0689655172414,121.0 517.0689655172414,105.0 467.9310344827586,105.0" fill="none" stroke="black" stroke-width="2"/><path d="M467.9310344827586,105.0 467.9310344827586,89.0 429.5689655172414,89.0" fill="none" stroke="black" stroke-width="2"/><path d="M429.5689655172414,89.0 429.5689655172414,73.0 396.59482758620686,73.0" fill="none" stroke="black" stroke-width="2"/><path d="M396.59482758620686,73.0 396.59482758620686,57.0 500.79741379310343,57.0" fill="none" stroke="black" stroke-width="2"/><path d="M500.79741379310343,57.0 500.79741379310343,41.0 616.6918103448276,41.0" fill="none" stroke="black" stroke-width="2"/><path d="M616.6918103448276,41.0 616.6918103448276,25.0 417.7424568965517,25.0" fill="none" stroke="black" stroke-width="2"/><path d="M322.2413793103448,169.0 322.2413793103448,137.0 280.8620689655172,137.0" fill="none" stroke="black" stroke-width="2"/><path d="M211.8965517241379,169.0 211.8965517241379,153.0 239.48275862068962,153.0" fill="none" stroke="black" stroke-width="2"/><path d="M267.06896551724134,169.0 267.06896551724134,153.0 239.48275862068962,153.0" fill="none" stroke="black" stroke-width="2"/><path d="M239.48275862068962,153.0 239.48275862068962,137.0 280.8620689655172,137.0" fill="none" stroke="black" stroke-width="2"/><path d="M280.8620689655172,137.0 280.8620689655172,121.0 218.79310344827584,121.0" fill="none" stroke="black" stroke-width="2"/><path d="M156.72413793103448,169.0 156.72413793103448,121.0 218.79310344827584,121.0" fill="none" stroke="black" stroke-width="2"/><path d="M218.79310344827584,121.0 218.79310344827584,25.0 417.7424568965517,25.0" fill="none" stroke="black" stroke-width="2"/><path d="M417.7424568965517,25.0 417.7424568965517,9.0 237.23329741379308,9.0" fill="none" stroke="black" stroke-width="2"/></g><g id="vertexLayer"><circle cx="87.75862068965517" cy="185.0" fill="white" id="v1" r="2.5" stroke="black" stroke-width="1"/><circle cx="115.34482758620689" cy="185.0" fill="white" id="v2" r="2.5" stroke="black" stroke-width="1"/><circle cx="60.172413793103445" cy="185.0" fill="white" id="v3" r="2.5" stroke="black" stroke-width="1"/><circle cx="32.58620689655172" cy="185.0" fill="white" id="v4" r="2.5" stroke="black" stroke-width="1"/><circle cx="667.0689655172414" cy="185.0" fill="white" id="v5" r="2.5" stroke="black" stroke-width="1"/><circle cx="694.655172413793" cy="185.0" fill="white" id="v6" r="2.5" stroke="black" stroke-width="1"/><circle cx="722.2413793103448" cy="185.0" fill="white" id="v7" r="2.5" stroke="black" stroke-width="1"/><circle cx="749.8275862068965" cy="185.0" fill="white" id="v8" r="2.5" stroke="black" stroke-width="1"/><circle cx="777.4137931034483" cy="185.0" fill="white" id="v9" r="2.5" stroke="black" stroke-width="1"/><circle cx="584.3103448275862" cy="185.0" fill="white" id="v10" r="2.5" stroke="black" stroke-width="1"/><circle cx="639.4827586206897" cy="185.0" fill="white" id="v11" r="2.5" stroke="black" stroke-width="1"/><circle cx="611.8965517241379" cy="185.0" fill="white" id="v12" r="2.5" stroke="black" stroke-width="1"/><circle cx="418.7931034482758" cy="185.0" fill="white" id="v13" r="2.5" stroke="black" stroke-width="1"/><circle cx="446.37931034482756" cy="185.0" fill="white" id="v14" r="2.5" stroke="black" stroke-width="1"/><circle cx="501.551724137931" cy="185.0" fill="white" id="v15" r="2.5" stroke="black" stroke-width="1"/><circle cx="473.9655172413793" cy="185.0" fill="white" id="v16" r="2.5" stroke="black" stroke-width="1"/><circle cx="529.1379310344827" cy="185.0" fill="white" id="v17" r="2.5" stroke="black" stroke-width="1"/><circle cx="556.7241379310344" cy="185.0" fill="white" id="v18" r="2.5" stroke="black" stroke-width="1"/><circle cx="391.2068965517241" cy="185.0" fill="white" id="v19" r="2.5" stroke="black" stroke-width="1"/><circle cx="363.6206896551724" cy="185.0" fill="white" id="v20" r="2.5" stroke="black" stroke-width="1"/><circle cx="308.44827586206895" cy="185.0" fill="white" id="v21" r="2.5" stroke="black" stroke-width="1"/><circle cx="336.0344827586207" cy="185.0" fill="white" id="v22" r="2.5" stroke="black" stroke-width="1"/><circle cx="225.68965517241378" cy="185.0" fill="white" id="v23" r="2.5" stroke="black" stroke-width="1"/><circle cx="198.10344827586206" cy="185.0" fill="white" id="v24" r="2.5" stroke="black" stroke-width="1"/><circle cx="253.2758620689655" cy="185.0" fill="white" id="v25" r="2.5" stroke="black" stroke-width="1"/><circle cx="280.8620689655172" cy="185.0" fill="white" id="v26" r="2.5" stroke="black" stroke-width="1"/><circle cx="142.9310344827586" cy="185.0" fill="white" id="v27" r="2.5" stroke="black" stroke-width="1"/><circle cx="170.51724137931035" cy="185.0" fill="white" id="v28" r="2.5" stroke="black" stroke-width="1"/><circle cx="101.55172413793103" cy="169.0" fill="black" id="v29" r="2.5" stroke="black" stroke-width="1"/><circle cx="80.86206896551724" cy="153.0" fill="black" id="v30" r="2.5" stroke="black" stroke-width="1"/><circle cx="56.72413793103448" cy="137.0" fill="black" id="v31" r="2.5" stroke="black" stroke-width="1"/><circle cx="680.8620689655172" cy="169.0" fill="black" id="v32" r="2.5" stroke="black" stroke-width="1"/><circle cx="701.5517241379309" cy="153.0" fill="black" id="v33" r="2.5" stroke="black" stroke-width="1"/><circle cx="763.6206896551723" cy="169.0" fill="black" id="v34" r="2.5" stroke="black" stroke-width="1"/><circle cx="732.5862068965516" cy="137.0" fill="black" id="v35" r="2.5" stroke="black" stroke-width="1"/><circle cx="625.6896551724137" cy="169.0" fill="black" id="v36" r="2.5" stroke="black" stroke-width="1"/><circle cx="605.0" cy="153.0" fill="black" id="v37" r="2.5" stroke="black" stroke-width="1"/><circle cx="487.7586206896551" cy="169.0" fill="black" id="v38" r="2.5" stroke="black" stroke-width="1"/><circle cx="508.4482758620689" cy="153.0" fill="black" id="v39" r="2.5" stroke="black" stroke-width="1"/><circle cx="477.41379310344826" cy="137.0" fill="black" id="v40" r="2.5" stroke="black" stroke-width="1"/><circle cx="517.0689655172414" cy="121.0" fill="black" id="v41" r="2.5" stroke="black" stroke-width="1"/><circle cx="467.9310344827586" cy="105.0" fill="black" id="v42" r="2.5" stroke="black" stroke-width="1"/><circle cx="429.5689655172414" cy="89.0" fill="black" id="v43" r="2.5" stroke="black" stroke-width="1"/><circle cx="396.59482758620686" cy="73.0" fill="black" id="v44" r="2.5" stroke="black" stroke-width="1"/><circle cx="500.79741379310343" cy="57.0" fill="black" id="v45" r="2.5" stroke="black" stroke-width="1"/><circle cx="616.6918103448276" cy="41.0" fill="black" id="v46" r="2.5" stroke="black" stroke-width="1"/><circle cx="322.2413793103448" cy="169.0" fill="black" id="v47" r="2.5" stroke="black" stroke-width="1"/><circle cx="211.8965517241379" cy="169.0" fill="black" id="v48" r="2.5" stroke="black" stroke-width="1"/><circle cx="267.06896551724134" cy="169.0" fill="black" id="v49" r="2.5" stroke="black" stroke-width="1"/><circle cx="239.48275862068962" cy="153.0" fill="black" id="v50" r="2.5" stroke="black" stroke-width="1"/><circle cx="280.8620689655172" cy="137.0" fill="black" id="v51" r="2.5" stroke="black" stroke-width="1"/><circle cx="156.72413793103448" cy="169.0" fill="black" id="v52" r="2.5" stroke="black" stroke-width="1"/><circle cx="218.79310344827584" cy="121.0" fill="black" id="v53" r="2.5" stroke="black" stroke-width="1"/><circle cx="417.7424568965517" cy="25.0" fill="black" id="v54" r="2.5" stroke="black" stroke-width="1"/><circle cx="237.23329741379308" cy="9.0" fill="black" id="v55" r="2.5" stroke="black" stroke-width="1"/></g></svg>