<?xml version="1.0" encoding="UTF-8" standalone="no"?><svg xmlns="http://www.w3.org/2000/svg" height="837" version="1.1" viewport="0 0 810 717" width="860"><g id="labelLayer"><text dominant-baseline="middle" style="font-size: smaller;" text-anchor="middle" x="205.7392053025854" y="542.5853389453209">1</text><text dominant-baseline="middle" style="font-size: smaller;" text-anchor="middle" x="505.00000000000006" y="211.0">1</text><text dominant-baseline="middle" style="font-size: smaller;" text-anchor="middle" x="352.824551082575" y="536.0702390500911">2</text><text dominant-baseline="middle" style="font-size: smaller;" text-anchor="middle" x="538.3333333333334" y="211.0">2</text><text dominant-baseline="middle" style="font-size: smaller;" text-anchor="middle" x="469.381043137539" y="463.75263021303317">3</text><text dominant-baseline="middle" style="font-size: smaller;" text-anchor="middle" x="571.6666666666667" y="211.0">3</text><text dominant-baseline="middle" style="font-size: smaller;" text-anchor="middle" x="344.41434796943383" y="586.4536782398675">4</text><text dominant-baseline="middle" style="font-size: smaller;" text-anchor="middle" x="371.6666666666667" y="211.0">4</text><text dominant-baseline="middle" style="font-size: smaller;" text-anchor="middle" x="416.4528672172723" y="550.134385193923">5</text><text dominant-baseline="middle" style="font-size: smaller;" text-anchor="middle" x="405.0" y="211.0">5</text><text dominant-baseline="middle" style="font-size: smaller;" text-anchor="middle" x="544.9952460900674" y="533.8985390850089">6</text><text dominant-baseline="middle" style="font-size: smaller;" text-anchor="middle" x="438.33333333333337" y="211.0">6</text><text dominant-baseline="middle" style="font-size: smaller;" text-anchor="middle" x="323.56514947782244" y="573.726213424543">7</text><text dominant-baseline="middle" style="font-size: smaller;" text-anchor="middle" x="338.33333333333337" y="211.0">7</text><text dominant-baseline="middle" style="font-size: smaller;" text-anchor="middle" x="90.05661791084793" y="644.4380673074174">8</text><text dominant-baseline="middle" style="font-size: smaller;" text-anchor="middle" x="271.6666666666667" y="211.0">8</text><text dominant-baseline="middle" style="font-size: smaller;" text-anchor="middle" x="164.22466516747494" y="598.3980280477888">9</text><text dominant-baseline="middle" style="font-size: smaller;" text-anchor="middle" x="305.0" y="211.0">9</text><text dominant-baseline="middle" style="font-size: smaller;" text-anchor="middle" x="85.0" y="550.6206288161034">10</text><text dominant-baseline="middle" style="font-size: smaller;" text-anchor="middle" x="238.33333333333334" y="211.0">10</text><text dominant-baseline="middle" style="font-size: smaller;" text-anchor="middle" x="571.8976092196287" y="309.56193269258256">11</text><text dominant-baseline="middle" style="font-size: smaller;" text-anchor="middle" x="471.6666666666667" y="211.0">11</text><text dominant-baseline="middle" style="font-size: smaller;" text-anchor="middle" x="90.58859070684608" y="528.8449932662803">12</text><text dominant-baseline="middle" style="font-size: smaller;" text-anchor="middle" x="138.33333333333334" y="211.0">12</text><text dominant-baseline="middle" style="font-size: smaller;" text-anchor="middle" x="387.72369185608204" y="453.11130038415445">13</text><text dominant-baseline="middle" style="font-size: smaller;" text-anchor="middle" x="171.66666666666669" y="211.0">13</text><text dominant-baseline="middle" style="font-size: smaller;" text-anchor="middle" x="185.82515609485287" y="472.87377006635387">14</text><text dominant-baseline="middle" style="font-size: smaller;" text-anchor="middle" x="205.0" y="211.0">14</text><text dominant-baseline="middle" style="font-size: smaller;" text-anchor="middle" x="725.0" y="416.192400977852">15</text><text dominant-baseline="middle" style="font-size: smaller;" text-anchor="middle" x="605.0" y="211.0">15</text><text dominant-baseline="middle" style="font-size: smaller;" text-anchor="middle" x="650.7514593664033" y="457.45470031430773">16</text><text dominant-baseline="middle" style="font-size: smaller;" text-anchor="middle" x="638.3333333333334" y="211.0">16</text><text dominant-baseline="middle" style="font-size: smaller;" text-anchor="middle" x="619.958599252711" y="424.44486084514426">17</text><text dominant-baseline="middle" style="font-size: smaller;" text-anchor="middle" x="671.6666666666667" y="211.0">17</text><text dominant-baseline="middle" style="font-size: smaller;" text-anchor="middle" x="490.2232092439671" y="433.78317069497484">18</text><text dominant-baseline="middle" style="font-size: smaller;" text-anchor="middle" x="705.0" y="211.0">18</text><text dominant-baseline="middle" style="font-size: smaller;" text-anchor="middle" x="504.48065249882205" y="395.5612513096242">19</text><text dominant-baseline="middle" style="font-size: smaller;" text-anchor="middle" x="738.3333333333334" y="211.0">19</text><text dominant-baseline="middle" style="font-size: smaller;" text-anchor="middle" x="515.6362066376532" y="412.06617104420866">20</text><text dominant-baseline="middle" style="font-size: smaller;" text-anchor="middle" x="771.6666666666667" y="211.0">20</text><text dominant-baseline="middle" style="font-size: smaller;" text-anchor="middle" x="329.4175553733172" y="368.19783174965664">21</text><text dominant-baseline="middle" style="font-size: smaller;" text-anchor="middle" x="105.0" y="211.0">21</text><text dominant-baseline="middle" style="font-size: smaller;" text-anchor="middle" x="252.7021726057767" y="366.46047177759425">22</text><text dominant-baseline="middle" style="font-size: smaller;" text-anchor="middle" x="71.66666666666667" y="211.0">22</text><text dominant-baseline="middle" style="font-size: smaller;" text-anchor="middle" x="369.42438042794623" y="443.12148054480537">23</text><text dominant-baseline="middle" style="font-size: smaller;" text-anchor="middle" x="38.333333333333336" y="211.0">23</text></g><g id="leaderLayer"><path d="M205.7392053025854,532.5853389453209 505.00000000000006,217.0" fill="none" stroke="#666666" stroke-linecap="round" stroke-opacity="0.5" stroke-width="2"/><path d="M352.824551082575,526.0702390500911 538.3333333333334,217.0" fill="none" stroke="#666666" stroke-linecap="round" stroke-opacity="0.5" stroke-width="2"/><path d="M469.381043137539,453.75263021303317 571.6666666666667,217.0" fill="none" stroke="#666666" stroke-linecap="round" stroke-opacity="0.5" stroke-width="2"/><path d="M344.41434796943383,576.4536782398675 371.6666666666667,217.0" fill="none" stroke="#666666" stroke-linecap="round" stroke-opacity="0.5" stroke-width="2"/><path d="M416.4528672172723,540.134385193923 405.0,217.0" fill="none" stroke="#666666" stroke-linecap="round" stroke-opacity="0.5" stroke-width="2"/><path d="M544.9952460900674,523.8985390850089 438.33333333333337,217.0" fill="none" stroke="#666666" stroke-linecap="round" stroke-opacity="0.5" stroke-width="2"/><path d="M323.56514947782244,563.726213424543 338.33333333333337,217.0" fill="none" stroke="#666666" stroke-linecap="round" stroke-opacity="0.5" stroke-width="2"/><path d="M90.05661791084793,634.4380673074174 271.6666666666667,217.0" fill="none" stroke="#666666" stroke-linecap="round" stroke-opacity="0.5" stroke-width="2"/><path d="M164.22466516747494,588.3980280477888 305.0,217.0" fill="none" stroke="#666666" stroke-linecap="round" stroke-opacity="0.5" stroke-width="2"/><path d="M85.0,540.6206288161034 238.33333333333334,217.0" fill="none" stroke="#666666" stroke-linecap="round" stroke-opacity="0.5" stroke-width="2"/><path d="M571.8976092196287,299.56193269258256 471.6666666666667,217.0" fill="none" stroke="#666666" stroke-linecap="round" stroke-opacity="0.5" stroke-width="2"/><path d="M90.58859070684608,518.8449932662803 138.33333333333334,217.0" fill="none" stroke="#666666" stroke-linecap="round" stroke-opacity="0.5" stroke-width="2"/><path d="M387.72369185608204,443.11130038415445 171.66666666666669,217.0" fill="none" stroke="#666666" stroke-linecap="round" stroke-opacity="0.5" stroke-width="2"/><path d="M185.82515609485287,462.87377006635387 205.0,217.0" fill="none" stroke="#666666" stroke-linecap="round" stroke-opacity="0.5" stroke-width="2"/><path d="M725.0,406.192400977852 605.0,217.0" fill="none" stroke="#666666" stroke-linecap="round" stroke-opacity="0.5" stroke-width="2"/><path d="M650.7514593664033,447.45470031430773 638.3333333333334,217.0" fill="none" stroke="#666666" stroke-linecap="round" stroke-opacity="0.5" stroke-width="2"/><path d="M619.958599252711,414.44486084514426 671.6666666666667,217.0" fill="none" stroke="#666666" stroke-linecap="round" stroke-opacity="0.5" stroke-width="2"/><path d="M490.2232092439671,423.78317069497484 705.0,217.0" fill="none" stroke="#666666" stroke-linecap="round" stroke-opacity="0.5" stroke-width="2"/><path d="M504.48065249882205,385.5612513096242 738.3333333333334,217.0" fill="none" stroke="#666666" stroke-linecap="round" stroke-opacity="0.5" stroke-width="2"/><path d="M515.6362066376532,402.06617104420866 771.6666666666667,217.0" fill="none" stroke="#666666" stroke-linecap="round" stroke-opacity="0.5" stroke-width="2"/><path d="M329.4175553733172,358.19783174965664 105.0,217.0" fill="none" stroke="#666666" stroke-linecap="round" stroke-opacity="0.5" stroke-width="2"/><path d="M252.7021726057767,356.46047177759425 71.66666666666667,217.0" fill="none" stroke="#666666" stroke-linecap="round" stroke-opacity="0.5" stroke-width="2"/><path d="M369.42438042794623,433.12148054480537 38.333333333333336,217.0" fill="none" stroke="#666666" stroke-linecap="round" stroke-opacity="0.5" stroke-width="2"/></g><g id="backgroundLayer"><rect fill="none" height="500" stroke="grey" stroke-width="2" width="800" x="5.0" y="217.0"/></g><g id="siteLayer"><path d="M203.7392053025854,530.5853389453209 207.7392053025854,534.5853389453209 M 203.7392053025854,534.5853389453209 207.7392053025854,530.5853389453209" fill="none" id="s1" stroke="black" stroke-width="1.5"/><path d="M350.824551082575,524.0702390500911 354.824551082575,528.0702390500911 M 350.824551082575,528.0702390500911 354.824551082575,524.0702390500911" fill="none" id="s2" stroke="black" stroke-width="1.5"/><path d="M467.381043137539,451.75263021303317 471.381043137539,455.75263021303317 M 467.381043137539,455.75263021303317 471.381043137539,451.75263021303317" fill="none" id="s3" stroke="black" stroke-width="1.5"/><path d="M342.41434796943383,574.4536782398675 346.41434796943383,578.4536782398675 M 342.41434796943383,578.4536782398675 346.41434796943383,574.4536782398675" fill="none" id="s4" stroke="black" stroke-width="1.5"/><path d="M414.4528672172723,538.134385193923 418.4528672172723,542.134385193923 M 414.4528672172723,542.134385193923 418.4528672172723,538.134385193923" fill="none" id="s5" stroke="black" stroke-width="1.5"/><path d="M542.9952460900674,521.8985390850089 546.9952460900674,525.8985390850089 M 542.9952460900674,525.8985390850089 546.9952460900674,521.8985390850089" fill="none" id="s6" stroke="black" stroke-width="1.5"/><path d="M321.56514947782244,561.726213424543 325.56514947782244,565.726213424543 M 321.56514947782244,565.726213424543 325.56514947782244,561.726213424543" fill="none" id="s7" stroke="black" stroke-width="1.5"/><path d="M88.05661791084793,632.4380673074174 92.05661791084793,636.4380673074174 M 88.05661791084793,636.4380673074174 92.05661791084793,632.4380673074174" fill="none" id="s8" stroke="black" stroke-width="1.5"/><path d="M162.22466516747494,586.3980280477888 166.22466516747494,590.3980280477888 M 162.22466516747494,590.3980280477888 166.22466516747494,586.3980280477888" fill="none" id="s9" stroke="black" stroke-width="1.5"/><path d="M83.0,538.6206288161034 87.0,542.6206288161034 M 83.0,542.6206288161034 87.0,538.6206288161034" fill="none" id="s10" stroke="black" stroke-width="1.5"/><path d="M569.8976092196287,297.56193269258256 573.8976092196287,301.56193269258256 M 569.8976092196287,301.56193269258256 573.8976092196287,297.56193269258256" fill="none" id="s11" stroke="black" stroke-width="1.5"/><path d="M88.58859070684608,516.8449932662803 92.58859070684608,520.8449932662803 M 88.58859070684608,520.8449932662803 92.58859070684608,516.8449932662803" fill="none" id="s12" stroke="black" stroke-width="1.5"/><path d="M385.72369185608204,441.11130038415445 389.72369185608204,445.11130038415445 M 385.72369185608204,445.11130038415445 389.72369185608204,441.11130038415445" fill="none" id="s13" stroke="black" stroke-width="1.5"/><path d="M183.82515609485287,460.87377006635387 187.82515609485287,464.87377006635387 M 183.82515609485287,464.87377006635387 187.82515609485287,460.87377006635387" fill="none" id="s14" stroke="black" stroke-width="1.5"/><path d="M723.0,404.192400977852 727.0,408.192400977852 M 723.0,408.192400977852 727.0,404.192400977852" fill="none" id="s15" stroke="black" stroke-width="1.5"/><path d="M648.7514593664033,445.45470031430773 652.7514593664033,449.45470031430773 M 648.7514593664033,449.45470031430773 652.7514593664033,445.45470031430773" fill="none" id="s16" stroke="black" stroke-width="1.5"/><path d="M617.958599252711,412.44486084514426 621.958599252711,416.44486084514426 M 617.958599252711,416.44486084514426 621.958599252711,412.44486084514426" fill="none" id="s17" stroke="black" stroke-width="1.5"/><path d="M488.2232092439671,421.78317069497484 492.2232092439671,425.78317069497484 M 488.2232092439671,425.78317069497484 492.2232092439671,421.78317069497484" fill="none" id="s18" stroke="black" stroke-width="1.5"/><path d="M502.48065249882205,383.5612513096242 506.48065249882205,387.5612513096242 M 502.48065249882205,387.5612513096242 506.48065249882205,383.5612513096242" fill="none" id="s19" stroke="black" stroke-width="1.5"/><path d="M513.6362066376532,400.06617104420866 517.6362066376532,404.06617104420866 M 513.6362066376532,404.06617104420866 517.6362066376532,400.06617104420866" fill="none" id="s20" stroke="black" stroke-width="1.5"/><path d="M327.4175553733172,356.19783174965664 331.4175553733172,360.19783174965664 M 327.4175553733172,360.19783174965664 331.4175553733172,356.19783174965664" fill="none" id="s21" stroke="black" stroke-width="1.5"/><path d="M250.7021726057767,354.46047177759425 254.7021726057767,358.46047177759425 M 250.7021726057767,358.46047177759425 254.7021726057767,354.46047177759425" fill="none" id="s22" stroke="black" stroke-width="1.5"/><path d="M367.42438042794623,431.12148054480537 371.42438042794623,435.12148054480537 M 367.42438042794623,435.12148054480537 371.42438042794623,431.12148054480537" fill="none" id="s23" stroke="black" stroke-width="1.5"/></g><g id="edgeLayer"><path d="M505.00000000000006,201.0 505.00000000000006,185.0 521.6666666666667,185.0" fill="none" stroke="black" stroke-width="2"/><path d="M538.3333333333334,201.0 538.3333333333334,185.0 521.6666666666667,185.0" fill="none" stroke="black" stroke-width="2"/><path d="M571.6666666666667,201.0 571.6666666666667,169.0 546.6666666666667,169.0" fill="none" stroke="black" stroke-width="2"/><path d="M371.6666666666667,201.0 371.6666666666667,185.0 388.33333333333337,185.0" fill="none" stroke="black" stroke-width="2"/><path d="M405.0,201.0 405.0,185.0 388.33333333333337,185.0" fill="none" stroke="black" stroke-width="2"/><path d="M438.33333333333337,201.0 438.33333333333337,169.0 413.33333333333337,169.0" fill="none" stroke="black" stroke-width="2"/><path d="M338.33333333333337,201.0 338.33333333333337,153.0 375.83333333333337,153.0" fill="none" stroke="black" stroke-width="2"/><path d="M271.6666666666667,201.0 271.6666666666667,185.0 288.33333333333337,185.0" fill="none" stroke="black" stroke-width="2"/><path d="M305.0,201.0 305.0,185.0 288.33333333333337,185.0" fill="none" stroke="black" stroke-width="2"/><path d="M238.33333333333334,201.0 238.33333333333334,169.0 263.33333333333337,169.0" fill="none" stroke="black" stroke-width="2"/><path d="M471.6666666666667,201.0 471.6666666666667,121.0 395.625,121.0" fill="none" stroke="black" stroke-width="2"/><path d="M138.33333333333334,201.0 138.33333333333334,185.0 155.0,185.0" fill="none" stroke="black" stroke-width="2"/><path d="M171.66666666666669,201.0 171.66666666666669,185.0 155.0,185.0" fill="none" stroke="black" stroke-width="2"/><path d="M205.0,201.0 205.0,169.0 180.0,169.0" fill="none" stroke="black" stroke-width="2"/><path d="M605.0,201.0 605.0,73.0 465.28645833333337,73.0" fill="none" stroke="black" stroke-width="2"/><path d="M638.3333333333334,201.0 638.3333333333334,57.0 551.8098958333334,57.0" fill="none" stroke="black" stroke-width="2"/><path d="M671.6666666666667,201.0 671.6666666666667,41.0 611.73828125,41.0" fill="none" stroke="black" stroke-width="2"/><path d="M705.0,201.0 705.0,185.0 721.6666666666667,185.0" fill="none" stroke="black" stroke-width="2"/><path d="M738.3333333333334,201.0 738.3333333333334,185.0 721.6666666666667,185.0" fill="none" stroke="black" stroke-width="2"/><path d="M771.6666666666667,201.0 771.6666666666667,169.0 746.6666666666667,169.0" fill="none" stroke="black" stroke-width="2"/><path d="M105.0,201.0 105.0,185.0 88.33333333333334,185.0" fill="none" stroke="black" stroke-width="2"/><path d="M71.66666666666667,201.0 71.66666666666667,185.0 88.33333333333334,185.0" fill="none" stroke="black" stroke-width="2"/><path d="M38.333333333333336,201.0 38.333333333333336,169.0 63.33333333333334,169.0" fill="none" stroke="black" stroke-width="2"/><path d="M521.6666666666667,185.0 521.6666666666667,169.0 546.6666666666667,169.0" fill="none" stroke="black" stroke-width="2"/><path d="M546.6666666666667,169.0 546.6666666666667,105.0 471.14583333333337,105.0" fill="none" stroke="black" stroke-width="2"/><path d="M388.33333333333337,185.0 388.33333333333337,169.0 413.33333333333337,169.0" fill="none" stroke="black" stroke-width="2"/><path d="M413.33333333333337,169.0 413.33333333333337,153.0 375.83333333333337,153.0" fill="none" stroke="black" stroke-width="2"/><path d="M375.83333333333337,153.0 375.83333333333337,137.0 319.58333333333337,137.0" fill="none" stroke="black" stroke-width="2"/><path d="M288.33333333333337,185.0 288.33333333333337,169.0 263.33333333333337,169.0" fill="none" stroke="black" stroke-width="2"/><path d="M263.33333333333337,169.0 263.33333333333337,137.0 319.58333333333337,137.0" fill="none" stroke="black" stroke-width="2"/><path d="M319.58333333333337,137.0 319.58333333333337,121.0 395.625,121.0" fill="none" stroke="black" stroke-width="2"/><path d="M395.625,121.0 395.625,105.0 471.14583333333337,105.0" fill="none" stroke="black" stroke-width="2"/><path d="M471.14583333333337,105.0 471.14583333333337,89.0 325.5729166666667,89.0" fill="none" stroke="black" stroke-width="2"/><path d="M155.0,185.0 155.0,169.0 180.0,169.0" fill="none" stroke="black" stroke-width="2"/><path d="M180.0,169.0 180.0,89.0 325.5729166666667,89.0" fill="none" stroke="black" stroke-width="2"/><path d="M325.5729166666667,89.0 325.5729166666667,73.0 465.28645833333337,73.0" fill="none" stroke="black" stroke-width="2"/><path d="M465.28645833333337,73.0 465.28645833333337,57.0 551.8098958333334,57.0" fill="none" stroke="black" stroke-width="2"/><path d="M551.8098958333334,57.0 551.8098958333334,41.0 611.73828125,41.0" fill="none" stroke="black" stroke-width="2"/><path d="M611.73828125,41.0 611.73828125,25.0 679.2024739583334,25.0" fill="none" stroke="black" stroke-width="2"/><path d="M721.6666666666667,185.0 721.6666666666667,169.0 746.6666666666667,169.0" fill="none" stroke="black" stroke-width="2"/><path d="M746.6666666666667,169.0 746.6666666666667,25.0 679.2024739583334,25.0" fill="none" stroke="black" stroke-width="2"/><path d="M679.2024739583334,25.0 679.2024739583334,9.0 371.26790364583337,9.0" fill="none" stroke="black" stroke-width="2"/><path d="M88.33333333333334,185.0 88.33333333333334,169.0 63.33333333333334,169.0" fill="none" stroke="black" stroke-width="2"/><path d="M63.33333333333334,169.0 63.33333333333334,9.0 371.26790364583337,9.0" fill="none" stroke="black" stroke-width="2"/></g><g id="vertexLayer"><circle cx="505.00000000000006" cy="201.0" fill="white" id="v1" r="2.5" stroke="black" stroke-width="1"/><circle cx="538.3333333333334" cy="201.0" fill="white" id="v2" r="2.5" stroke="black" stroke-width="1"/><circle cx="571.6666666666667" cy="201.0" fill="white" id="v3" r="2.5" stroke="black" stroke-width="1"/><circle cx="371.6666666666667" cy="201.0" fill="white" id="v4" r="2.5" stroke="black" stroke-width="1"/><circle cx="405.0" cy="201.0" fill="white" id="v5" r="2.5" stroke="black" stroke-width="1"/><circle cx="438.33333333333337" cy="201.0" fill="white" id="v6" r="2.5" stroke="black" stroke-width="1"/><circle cx="338.33333333333337" cy="201.0" fill="white" id="v7" r="2.5" stroke="black" stroke-width="1"/><circle cx="271.6666666666667" cy="201.0" fill="white" id="v8" r="2.5" stroke="black" stroke-width="1"/><circle cx="305.0" cy="201.0" fill="white" id="v9" r="2.5" stroke="black" stroke-width="1"/><circle cx="238.33333333333334" cy="201.0" fill="white" id="v10" r="2.5" stroke="black" stroke-width="1"/><circle cx="471.6666666666667" cy="201.0" fill="white" id="v11" r="2.5" stroke="black" stroke-width="1"/><circle cx="138.33333333333334" cy="201.0" fill="white" id="v12" r="2.5" stroke="black" stroke-width="1"/><circle cx="171.66666666666669" cy="201.0" fill="white" id="v13" r="2.5" stroke="black" stroke-width="1"/><circle cx="205.0" cy="201.0" fill="white" id="v14" r="2.5" stroke="black" stroke-width="1"/><circle cx="605.0" cy="201.0" fill="white" id="v15" r="2.5" stroke="black" stroke-width="1"/><circle cx="638.3333333333334" cy="201.0" fill="white" id="v16" r="2.5" stroke="black" stroke-width="1"/><circle cx="671.6666666666667" cy="201.0" fill="white" id="v17" r="2.5" stroke="black" stroke-width="1"/><circle cx="705.0" cy="201.0" fill="white" id="v18" r="2.5" stroke="black" stroke-width="1"/><circle cx="738.3333333333334" cy="201.0" fill="white" id="v19" r="2.5" stroke="black" stroke-width="1"/><circle cx="771.6666666666667" cy="201.0" fill="white" id="v20" r="2.5" stroke="black" stroke-width="1"/><circle cx="105.0" cy="201.0" fill="white" id="v21" r="2.5" stroke="black" stroke-width="1"/><circle cx="71.66666666666667" cy="201.0" fill="white" id="v22" r="2.5" stroke="black" stroke-width="1"/><circle cx="38.333333333333336" cy="201.0" fill="white" id="v23" r="2.5" stroke="black" stroke-width="1"/><circle cx="521.6666666666667" cy="185.0" fill="black" id="v24" r="2.5" stroke="black" stroke-width="1"/><circle cx="546.6666666666667" cy="169.0" fill="black" id="v25" r="2.5" stroke="black" stroke-width="1"/><circle cx="388.33333333333337" cy="185.0" fill="black" id="v26" r="2.5" stroke="black" stroke-width="1"/><circle cx="413.33333333333337" cy="169.0" fill="black" id="v27" r="2.5" stroke="black" stroke-width="1"/><circle cx="375.83333333333337" cy="153.0" fill="black" id="v28" r="2.5" stroke="black" stroke-width="1"/><circle cx="288.33333333333337" cy="185.0" fill="black" id="v29" r="2.5" stroke="black" stroke-width="1"/><circle cx="263.33333333333337" cy="169.0" fill="black" id="v30" r="2.5" stroke="black" stroke-width="1"/><circle cx="319.58333333333337" cy="137.0" fill="black" id="v31" r="2.5" stroke="black" stroke-width="1"/><circle cx="395.625" cy="121.0" fill="black" id="v32" r="2.5" stroke="black" stroke-width="1"/><circle cx="471.14583333333337" cy="105.0" fill="black" id="v33" r="2.5" stroke="black" stroke-width="1"/><circle cx="155.0" cy="185.0" fill="black" id="v34" r="2.5" stroke="black" stroke-width="1"/><circle cx="180.0" cy="169.0" fill="black" id="v35" r="2.5" stroke="black" stroke-width="1"/><circle cx="325.5729166666667" cy="89.0" fill="black" id="v36" r="2.5" stroke="black" stroke-width="1"/><circle cx="465.28645833333337" cy="73.0" fill="black" id="v37" r="2.5" stroke="black" stroke-width="1"/><circle cx="551.8098958333334" cy="57.0" fill="black" id="v38" r="2.5" stroke="black" stroke-width="1"/><circle cx="611.73828125" cy="41.0" fill="black" id="v39" r="2.5" stroke="black" stroke-width="1"/><circle cx="721.6666666666667" cy="185.0" fill="black" id="v40" r="2.5" stroke="black" stroke-width="1"/><circle cx="746.6666666666667" cy="169.0" fill="black" id="v41" r="2.5" stroke="black" stroke-width="1"/><circle cx="679.2024739583334" cy="25.0" fill="black" id="v42" r="2.5" stroke="black" stroke-width="1"/><circle cx="88.33333333333334" cy="185.0" fill="black" id="v43" r="2.5" stroke="black" stroke-width="1"/><circle cx="63.33333333333334" cy="169.0" fill="black" id="v44" r="2.5" stroke="black" stroke-width="1"/><circle cx="371.26790364583337" cy="9.0" fill="black" id="v45" r="2.5" stroke="black" stroke-width="1"/></g></svg>