<?xml version="1.0" encoding="UTF-8" standalone="no"?><svg xmlns="http://www.w3.org/2000/svg" height="717" preserveAspectRatio="xMidYMid meet" version="1.1" viewBox="0 0 810 717" width="810"><g id="labelLayer"><text dominant-baseline="middle" style="font-size: smaller;" text-anchor="middle" x="449.7639516786492" y="351.8239828058993">1</text><text dominant-baseline="middle" style="font-size: smaller;" text-anchor="middle" x="438.33333333333337" y="211.0">1</text><text dominant-baseline="middle" style="font-size: smaller;" text-anchor="middle" x="445.3172015118959" y="443.38256873934677">2</text><text dominant-baseline="middle" style="font-size: smaller;" text-anchor="middle" x="405.0" y="211.0">2</text><text dominant-baseline="middle" style="font-size: smaller;" text-anchor="middle" x="395.95827466093635" y="516.2499814718744">3</text><text dominant-baseline="middle" style="font-size: smaller;" text-anchor="middle" x="371.6666666666667" y="211.0">3</text><text dominant-baseline="middle" style="font-size: smaller;" text-anchor="middle" x="479.7054028014534" y="438.1354035425776">4</text><text dominant-baseline="middle" style="font-size: smaller;" text-anchor="middle" x="605.0" y="211.0">4</text><text dominant-baseline="middle" style="font-size: smaller;" text-anchor="middle" x="454.91640109686443" y="483.12702882976373">5</text><text dominant-baseline="middle" style="font-size: smaller;" text-anchor="middle" x="638.3333333333334" y="211.0">5</text><text dominant-baseline="middle" style="font-size: smaller;" text-anchor="middle" x="443.83495145631076" y="563.6671607500189">6</text><text dominant-baseline="middle" style="font-size: smaller;" text-anchor="middle" x="671.6666666666667" y="211.0">6</text><text dominant-baseline="middle" style="font-size: smaller;" text-anchor="middle" x="471.0185281256959" y="425.13369895501364">7</text><text dominant-baseline="middle" style="font-size: smaller;" text-anchor="middle" x="571.6666666666667" y="211.0">7</text><text dominant-baseline="middle" style="font-size: smaller;" text-anchor="middle" x="519.2814792855556" y="280.12754761728314">8</text><text dominant-baseline="middle" style="font-size: smaller;" text-anchor="middle" x="538.3333333333334" y="211.0">8</text><text dominant-baseline="middle" style="font-size: smaller;" text-anchor="middle" x="487.8577781071664" y="326.0624768398428">9</text><text dominant-baseline="middle" style="font-size: smaller;" text-anchor="middle" x="505.00000000000006" y="211.0">9</text><text dominant-baseline="middle" style="font-size: smaller;" text-anchor="middle" x="455.2482768843102" y="277.0">10</text><text dominant-baseline="middle" style="font-size: smaller;" text-anchor="middle" x="471.6666666666667" y="211.0">10</text><text dominant-baseline="middle" style="font-size: smaller;" text-anchor="middle" x="290.71852071444437" y="580.5648113836808">11</text><text dominant-baseline="middle" style="font-size: smaller;" text-anchor="middle" x="705.0" y="211.0">11</text><text dominant-baseline="middle" style="font-size: smaller;" text-anchor="middle" x="440.3857555769664" y="280.456607129623">12</text><text dominant-baseline="middle" style="font-size: smaller;" text-anchor="middle" x="338.33333333333337" y="211.0">12</text><text dominant-baseline="middle" style="font-size: smaller;" text-anchor="middle" x="388.69524938857194" y="465.17164455643683">13</text><text dominant-baseline="middle" style="font-size: smaller;" text-anchor="middle" x="305.0" y="211.0">13</text><text dominant-baseline="middle" style="font-size: smaller;" text-anchor="middle" x="402.1837248943889" y="339.46201734232596">14</text><text dominant-baseline="middle" style="font-size: smaller;" text-anchor="middle" x="271.6666666666667" y="211.0">14</text><text dominant-baseline="middle" style="font-size: smaller;" text-anchor="middle" x="363.49699844363727" y="677.0">15</text><text dominant-baseline="middle" style="font-size: smaller;" text-anchor="middle" x="738.3333333333334" y="211.0">15</text><text dominant-baseline="middle" style="font-size: smaller;" text-anchor="middle" x="391.6597494997401" y="630.1757207440896">16</text><text dominant-baseline="middle" style="font-size: smaller;" text-anchor="middle" x="771.6666666666667" y="211.0">16</text><text dominant-baseline="middle" style="font-size: smaller;" text-anchor="middle" x="369.1295486548574" y="610.7878900170458">17</text><text dominant-baseline="middle" style="font-size: smaller;" text-anchor="middle" x="238.33333333333334" y="211.0">17</text><text dominant-baseline="middle" style="font-size: smaller;" text-anchor="middle" x="375.50322389387117" y="529.3086044615729">18</text><text dominant-baseline="middle" style="font-size: smaller;" text-anchor="middle" x="205.0" y="211.0">18</text><text dominant-baseline="middle" style="font-size: smaller;" text-anchor="middle" x="349.41562291558586" y="538.2465722967465">19</text><text dominant-baseline="middle" style="font-size: smaller;" text-anchor="middle" x="171.66666666666669" y="211.0">19</text><text dominant-baseline="middle" style="font-size: smaller;" text-anchor="middle" x="360.68072333802826" y="545.2427925591048">20</text><text dominant-baseline="middle" style="font-size: smaller;" text-anchor="middle" x="138.33333333333334" y="211.0">20</text><text dominant-baseline="middle" style="font-size: smaller;" text-anchor="middle" x="330.73927221522194" y="428.7824056918404">21</text><text dominant-baseline="middle" style="font-size: smaller;" text-anchor="middle" x="71.66666666666667" y="211.0">21</text><text dominant-baseline="middle" style="font-size: smaller;" text-anchor="middle" x="329.55347217075513" y="381.0094864003556">22</text><text dominant-baseline="middle" style="font-size: smaller;" text-anchor="middle" x="105.0" y="211.0">22</text><text dominant-baseline="middle" style="font-size: smaller;" text-anchor="middle" x="381.87689913288494" y="453.7434966278811">23</text><text dominant-baseline="middle" style="font-size: smaller;" text-anchor="middle" x="38.333333333333336" y="211.0">23</text></g><g id="leaderLayer"><path d="M449.7639516786492,341.8239828058993 438.33333333333337,217.0" fill="none" stroke="#666666" stroke-linecap="round" stroke-opacity="0.5" stroke-width="2"/><path d="M445.3172015118959,433.38256873934677 405.0,217.0" fill="none" stroke="#666666" stroke-linecap="round" stroke-opacity="0.5" stroke-width="2"/><path d="M395.95827466093635,506.2499814718745 371.6666666666667,217.0" fill="none" stroke="#666666" stroke-linecap="round" stroke-opacity="0.5" stroke-width="2"/><path d="M479.7054028014534,428.1354035425776 605.0,217.0" fill="none" stroke="#666666" stroke-linecap="round" stroke-opacity="0.5" stroke-width="2"/><path d="M454.91640109686443,473.12702882976373 638.3333333333334,217.0" fill="none" stroke="#666666" stroke-linecap="round" stroke-opacity="0.5" stroke-width="2"/><path d="M443.83495145631076,553.6671607500189 671.6666666666667,217.0" fill="none" stroke="#666666" stroke-linecap="round" stroke-opacity="0.5" stroke-width="2"/><path d="M471.0185281256959,415.13369895501364 571.6666666666667,217.0" fill="none" stroke="#666666" stroke-linecap="round" stroke-opacity="0.5" stroke-width="2"/><path d="M519.2814792855556,270.12754761728314 538.3333333333334,217.0" fill="none" stroke="#666666" stroke-linecap="round" stroke-opacity="0.5" stroke-width="2"/><path d="M487.8577781071664,316.0624768398428 505.00000000000006,217.0" fill="none" stroke="#666666" stroke-linecap="round" stroke-opacity="0.5" stroke-width="2"/><path d="M455.2482768843102,267.0 471.6666666666667,217.0" fill="none" stroke="#666666" stroke-linecap="round" stroke-opacity="0.5" stroke-width="2"/><path d="M290.71852071444437,570.5648113836808 705.0,217.0" fill="none" stroke="#666666" stroke-linecap="round" stroke-opacity="0.5" stroke-width="2"/><path d="M440.3857555769664,270.456607129623 338.33333333333337,217.0" fill="none" stroke="#666666" stroke-linecap="round" stroke-opacity="0.5" stroke-width="2"/><path d="M388.69524938857194,455.17164455643683 305.0,217.0" fill="none" stroke="#666666" stroke-linecap="round" stroke-opacity="0.5" stroke-width="2"/><path d="M402.1837248943889,329.46201734232596 271.6666666666667,217.0" fill="none" stroke="#666666" stroke-linecap="round" stroke-opacity="0.5" stroke-width="2"/><path d="M363.49699844363727,667.0 738.3333333333334,217.0" fill="none" stroke="#666666" stroke-linecap="round" stroke-opacity="0.5" stroke-width="2"/><path d="M391.6597494997401,620.1757207440896 771.6666666666667,217.0" fill="none" stroke="#666666" stroke-linecap="round" stroke-opacity="0.5" stroke-width="2"/><path d="M369.1295486548574,600.7878900170458 238.33333333333334,217.0" fill="none" stroke="#666666" stroke-linecap="round" stroke-opacity="0.5" stroke-width="2"/><path d="M375.50322389387117,519.3086044615729 205.0,217.0" fill="none" stroke="#666666" stroke-linecap="round" stroke-opacity="0.5" stroke-width="2"/><path d="M349.41562291558586,528.2465722967465 171.66666666666669,217.0" fill="none" stroke="#666666" stroke-linecap="round" stroke-opacity="0.5" stroke-width="2"/><path d="M360.68072333802826,535.2427925591048 138.33333333333334,217.0" fill="none" stroke="#666666" stroke-linecap="round" stroke-opacity="0.5" stroke-width="2"/><path d="M330.73927221522194,418.7824056918404 71.66666666666667,217.0" fill="none" stroke="#666666" stroke-linecap="round" stroke-opacity="0.5" stroke-width="2"/><path d="M329.55347217075513,371.0094864003556 105.0,217.0" fill="none" stroke="#666666" stroke-linecap="round" stroke-opacity="0.5" stroke-width="2"/><path d="M381.87689913288494,443.7434966278811 38.333333333333336,217.0" fill="none" stroke="#666666" stroke-linecap="round" stroke-opacity="0.5" stroke-width="2"/></g><g id="backgroundLayer"><rect fill="none" height="500" stroke="grey" stroke-width="2" width="800" x="5.0" y="217.0"/></g><g id="siteLayer"><path d="M447.7639516786492,339.8239828058993 451.7639516786492,343.8239828058993 M 447.7639516786492,343.8239828058993 451.7639516786492,339.8239828058993" fill="none" id="s1" stroke="black" stroke-width="1.5"/><path d="M443.3172015118959,431.38256873934677 447.3172015118959,435.38256873934677 M 443.3172015118959,435.38256873934677 447.3172015118959,431.38256873934677" fill="none" id="s2" stroke="black" stroke-width="1.5"/><path d="M393.95827466093635,504.2499814718745 397.95827466093635,508.2499814718745 M 393.95827466093635,508.2499814718745 397.95827466093635,504.2499814718745" fill="none" id="s3" stroke="black" stroke-width="1.5"/><path d="M477.7054028014534,426.1354035425776 481.7054028014534,430.1354035425776 M 477.7054028014534,430.1354035425776 481.7054028014534,426.1354035425776" fill="none" id="s4" stroke="black" stroke-width="1.5"/><path d="M452.91640109686443,471.12702882976373 456.91640109686443,475.12702882976373 M 452.91640109686443,475.12702882976373 456.91640109686443,471.12702882976373" fill="none" id="s5" stroke="black" stroke-width="1.5"/><path d="M441.83495145631076,551.6671607500189 445.83495145631076,555.6671607500189 M 441.83495145631076,555.6671607500189 445.83495145631076,551.6671607500189" fill="none" id="s6" stroke="black" stroke-width="1.5"/><path d="M469.0185281256959,413.13369895501364 473.0185281256959,417.13369895501364 M 469.0185281256959,417.13369895501364 473.0185281256959,413.13369895501364" fill="none" id="s7" stroke="black" stroke-width="1.5"/><path d="M517.2814792855556,268.12754761728314 521.2814792855556,272.12754761728314 M 517.2814792855556,272.12754761728314 521.2814792855556,268.12754761728314" fill="none" id="s8" stroke="black" stroke-width="1.5"/><path d="M485.8577781071664,314.0624768398428 489.8577781071664,318.0624768398428 M 485.8577781071664,318.0624768398428 489.8577781071664,314.0624768398428" fill="none" id="s9" stroke="black" stroke-width="1.5"/><path d="M453.2482768843102,265.0 457.2482768843102,269.0 M 453.2482768843102,269.0 457.2482768843102,265.0" fill="none" id="s10" stroke="black" stroke-width="1.5"/><path d="M288.71852071444437,568.5648113836808 292.71852071444437,572.5648113836808 M 288.71852071444437,572.5648113836808 292.71852071444437,568.5648113836808" fill="none" id="s11" stroke="black" stroke-width="1.5"/><path d="M438.3857555769664,268.456607129623 442.3857555769664,272.456607129623 M 438.3857555769664,272.456607129623 442.3857555769664,268.456607129623" fill="none" id="s12" stroke="black" stroke-width="1.5"/><path d="M386.69524938857194,453.17164455643683 390.69524938857194,457.17164455643683 M 386.69524938857194,457.17164455643683 390.69524938857194,453.17164455643683" fill="none" id="s13" stroke="black" stroke-width="1.5"/><path d="M400.1837248943889,327.46201734232596 404.1837248943889,331.46201734232596 M 400.1837248943889,331.46201734232596 404.1837248943889,327.46201734232596" fill="none" id="s14" stroke="black" stroke-width="1.5"/><path d="M361.49699844363727,665.0 365.49699844363727,669.0 M 361.49699844363727,669.0 365.49699844363727,665.0" fill="none" id="s15" stroke="black" stroke-width="1.5"/><path d="M389.6597494997401,618.1757207440896 393.6597494997401,622.1757207440896 M 389.6597494997401,622.1757207440896 393.6597494997401,618.1757207440896" fill="none" id="s16" stroke="black" stroke-width="1.5"/><path d="M367.1295486548574,598.7878900170458 371.1295486548574,602.7878900170458 M 367.1295486548574,602.7878900170458 371.1295486548574,598.7878900170458" fill="none" id="s17" stroke="black" stroke-width="1.5"/><path d="M373.50322389387117,517.3086044615729 377.50322389387117,521.3086044615729 M 373.50322389387117,521.3086044615729 377.50322389387117,517.3086044615729" fill="none" id="s18" stroke="black" stroke-width="1.5"/><path d="M347.41562291558586,526.2465722967465 351.41562291558586,530.2465722967465 M 347.41562291558586,530.2465722967465 351.41562291558586,526.2465722967465" fill="none" id="s19" stroke="black" stroke-width="1.5"/><path d="M358.68072333802826,533.2427925591048 362.68072333802826,537.2427925591048 M 358.68072333802826,537.2427925591048 362.68072333802826,533.2427925591048" fill="none" id="s20" stroke="black" stroke-width="1.5"/><path d="M328.73927221522194,416.7824056918404 332.73927221522194,420.7824056918404 M 328.73927221522194,420.7824056918404 332.73927221522194,416.7824056918404" fill="none" id="s21" stroke="black" stroke-width="1.5"/><path d="M327.55347217075513,369.0094864003556 331.55347217075513,373.0094864003556 M 327.55347217075513,373.0094864003556 331.55347217075513,369.0094864003556" fill="none" id="s22" stroke="black" stroke-width="1.5"/><path d="M379.87689913288494,441.7434966278811 383.87689913288494,445.7434966278811 M 379.87689913288494,445.7434966278811 383.87689913288494,441.7434966278811" fill="none" id="s23" stroke="black" stroke-width="1.5"/></g><g id="edgeLayer"><path d="M438.33333333333337,201.0 438.33333333333337,185.0 421.6666666666667,185.0" fill="none" stroke="black" stroke-width="2"/><path d="M405.0,201.0 405.0,185.0 421.6666666666667,185.0" fill="none" stroke="black" stroke-width="2"/><path d="M371.6666666666667,201.0 371.6666666666667,169.0 396.6666666666667,169.0" fill="none" stroke="black" stroke-width="2"/><path d="M605.0,201.0 605.0,185.0 621.6666666666667,185.0" fill="none" stroke="black" stroke-width="2"/><path d="M638.3333333333334,201.0 638.3333333333334,185.0 621.6666666666667,185.0" fill="none" stroke="black" stroke-width="2"/><path d="M671.6666666666667,201.0 671.6666666666667,169.0 646.6666666666667,169.0" fill="none" stroke="black" stroke-width="2"/><path d="M571.6666666666667,201.0 571.6666666666667,153.0 609.1666666666667,153.0" fill="none" stroke="black" stroke-width="2"/><path d="M538.3333333333334,201.0 538.3333333333334,185.0 521.6666666666667,185.0" fill="none" stroke="black" stroke-width="2"/><path d="M505.00000000000006,201.0 505.00000000000006,185.0 521.6666666666667,185.0" fill="none" stroke="black" stroke-width="2"/><path d="M471.6666666666667,201.0 471.6666666666667,169.0 496.66666666666674,169.0" fill="none" stroke="black" stroke-width="2"/><path d="M705.0,201.0 705.0,121.0 628.9583333333334,121.0" fill="none" stroke="black" stroke-width="2"/><path d="M338.33333333333337,201.0 338.33333333333337,185.0 321.6666666666667,185.0" fill="none" stroke="black" stroke-width="2"/><path d="M305.0,201.0 305.0,185.0 321.6666666666667,185.0" fill="none" stroke="black" stroke-width="2"/><path d="M271.6666666666667,201.0 271.6666666666667,169.0 296.6666666666667,169.0" fill="none" stroke="black" stroke-width="2"/><path d="M738.3333333333334,201.0 738.3333333333334,73.0 571.5364583333334,73.0" fill="none" stroke="black" stroke-width="2"/><path d="M771.6666666666667,201.0 771.6666666666667,57.0 671.6015625,57.0" fill="none" stroke="black" stroke-width="2"/><path d="M238.33333333333334,201.0 238.33333333333334,41.0 454.9674479166667,41.0" fill="none" stroke="black" stroke-width="2"/><path d="M205.0,201.0 205.0,185.0 188.33333333333334,185.0" fill="none" stroke="black" stroke-width="2"/><path d="M171.66666666666669,201.0 171.66666666666669,185.0 188.33333333333334,185.0" fill="none" stroke="black" stroke-width="2"/><path d="M138.33333333333334,201.0 138.33333333333334,169.0 163.33333333333334,169.0" fill="none" stroke="black" stroke-width="2"/><path d="M71.66666666666667,201.0 71.66666666666667,185.0 88.33333333333334,185.0" fill="none" stroke="black" stroke-width="2"/><path d="M105.0,201.0 105.0,185.0 88.33333333333334,185.0" fill="none" stroke="black" stroke-width="2"/><path d="M38.333333333333336,201.0 38.333333333333336,169.0 63.33333333333334,169.0" fill="none" stroke="black" stroke-width="2"/><path d="M421.6666666666667,185.0 421.6666666666667,169.0 396.6666666666667,169.0" fill="none" stroke="black" stroke-width="2"/><path d="M396.6666666666667,169.0 396.6666666666667,105.0 512.8125,105.0" fill="none" stroke="black" stroke-width="2"/><path d="M621.6666666666667,185.0 621.6666666666667,169.0 646.6666666666667,169.0" fill="none" stroke="black" stroke-width="2"/><path d="M646.6666666666667,169.0 646.6666666666667,153.0 609.1666666666667,153.0" fill="none" stroke="black" stroke-width="2"/><path d="M609.1666666666667,153.0 609.1666666666667,137.0 552.9166666666667,137.0" fill="none" stroke="black" stroke-width="2"/><path d="M521.6666666666667,185.0 521.6666666666667,169.0 496.66666666666674,169.0" fill="none" stroke="black" stroke-width="2"/><path d="M496.66666666666674,169.0 496.66666666666674,137.0 552.9166666666667,137.0" fill="none" stroke="black" stroke-width="2"/><path d="M552.9166666666667,137.0 552.9166666666667,121.0 628.9583333333334,121.0" fill="none" stroke="black" stroke-width="2"/><path d="M628.9583333333334,121.0 628.9583333333334,105.0 512.8125,105.0" fill="none" stroke="black" stroke-width="2"/><path d="M512.8125,105.0 512.8125,89.0 404.73958333333337,89.0" fill="none" stroke="black" stroke-width="2"/><path d="M321.6666666666667,185.0 321.6666666666667,169.0 296.6666666666667,169.0" fill="none" stroke="black" stroke-width="2"/><path d="M296.6666666666667,169.0 296.6666666666667,89.0 404.73958333333337,89.0" fill="none" stroke="black" stroke-width="2"/><path d="M404.73958333333337,89.0 404.73958333333337,73.0 571.5364583333334,73.0" fill="none" stroke="black" stroke-width="2"/><path d="M571.5364583333334,73.0 571.5364583333334,57.0 671.6015625,57.0" fill="none" stroke="black" stroke-width="2"/><path d="M671.6015625,57.0 671.6015625,41.0 454.9674479166667,41.0" fill="none" stroke="black" stroke-width="2"/><path d="M454.9674479166667,41.0 454.9674479166667,25.0 309.150390625,25.0" fill="none" stroke="black" stroke-width="2"/><path d="M188.33333333333334,185.0 188.33333333333334,169.0 163.33333333333334,169.0" fill="none" stroke="black" stroke-width="2"/><path d="M163.33333333333334,169.0 163.33333333333334,25.0 309.150390625,25.0" fill="none" stroke="black" stroke-width="2"/><path d="M309.150390625,25.0 309.150390625,9.0 186.24186197916669,9.0" fill="none" stroke="black" stroke-width="2"/><path d="M88.33333333333334,185.0 88.33333333333334,169.0 63.33333333333334,169.0" fill="none" stroke="black" stroke-width="2"/><path d="M63.33333333333334,169.0 63.33333333333334,9.0 186.24186197916669,9.0" fill="none" stroke="black" stroke-width="2"/></g><g id="vertexLayer"><circle cx="438.33333333333337" cy="201.0" fill="white" id="v1" r="2.5" stroke="black" stroke-width="1"/><circle cx="405.0" cy="201.0" fill="white" id="v2" r="2.5" stroke="black" stroke-width="1"/><circle cx="371.6666666666667" cy="201.0" fill="white" id="v3" r="2.5" stroke="black" stroke-width="1"/><circle cx="605.0" cy="201.0" fill="white" id="v4" r="2.5" stroke="black" stroke-width="1"/><circle cx="638.3333333333334" cy="201.0" fill="white" id="v5" r="2.5" stroke="black" stroke-width="1"/><circle cx="671.6666666666667" cy="201.0" fill="white" id="v6" r="2.5" stroke="black" stroke-width="1"/><circle cx="571.6666666666667" cy="201.0" fill="white" id="v7" r="2.5" stroke="black" stroke-width="1"/><circle cx="538.3333333333334" cy="201.0" fill="white" id="v8" r="2.5" stroke="black" stroke-width="1"/><circle cx="505.00000000000006" cy="201.0" fill="white" id="v9" r="2.5" stroke="black" stroke-width="1"/><circle cx="471.6666666666667" cy="201.0" fill="white" id="v10" r="2.5" stroke="black" stroke-width="1"/><circle cx="705.0" cy="201.0" fill="white" id="v11" r="2.5" stroke="black" stroke-width="1"/><circle cx="338.33333333333337" cy="201.0" fill="white" id="v12" r="2.5" stroke="black" stroke-width="1"/><circle cx="305.0" cy="201.0" fill="white" id="v13" r="2.5" stroke="black" stroke-width="1"/><circle cx="271.6666666666667" cy="201.0" fill="white" id="v14" r="2.5" stroke="black" stroke-width="1"/><circle cx="738.3333333333334" cy="201.0" fill="white" id="v15" r="2.5" stroke="black" stroke-width="1"/><circle cx="771.6666666666667" cy="201.0" fill="white" id="v16" r="2.5" stroke="black" stroke-width="1"/><circle cx="238.33333333333334" cy="201.0" fill="white" id="v17" r="2.5" stroke="black" stroke-width="1"/><circle cx="205.0" cy="201.0" fill="white" id="v18" r="2.5" stroke="black" stroke-width="1"/><circle cx="171.66666666666669" cy="201.0" fill="white" id="v19" r="2.5" stroke="black" stroke-width="1"/><circle cx="138.33333333333334" cy="201.0" fill="white" id="v20" r="2.5" stroke="black" stroke-width="1"/><circle cx="71.66666666666667" cy="201.0" fill="white" id="v21" r="2.5" stroke="black" stroke-width="1"/><circle cx="105.0" cy="201.0" fill="white" id="v22" r="2.5" stroke="black" stroke-width="1"/><circle cx="38.333333333333336" cy="201.0" fill="white" id="v23" r="2.5" stroke="black" stroke-width="1"/><circle cx="421.6666666666667" cy="185.0" fill="black" id="v24" r="2.5" stroke="black" stroke-width="1"/><circle cx="396.6666666666667" cy="169.0" fill="black" id="v25" r="2.5" stroke="black" stroke-width="1"/><circle cx="621.6666666666667" cy="185.0" fill="black" id="v26" r="2.5" stroke="black" stroke-width="1"/><circle cx="646.6666666666667" cy="169.0" fill="black" id="v27" r="2.5" stroke="black" stroke-width="1"/><circle cx="609.1666666666667" cy="153.0" fill="black" id="v28" r="2.5" stroke="black" stroke-width="1"/><circle cx="521.6666666666667" cy="185.0" fill="black" id="v29" r="2.5" stroke="black" stroke-width="1"/><circle cx="496.66666666666674" cy="169.0" fill="black" id="v30" r="2.5" stroke="black" stroke-width="1"/><circle cx="552.9166666666667" cy="137.0" fill="black" id="v31" r="2.5" stroke="black" stroke-width="1"/><circle cx="628.9583333333334" cy="121.0" fill="black" id="v32" r="2.5" stroke="black" stroke-width="1"/><circle cx="512.8125" cy="105.0" fill="black" id="v33" r="2.5" stroke="black" stroke-width="1"/><circle cx="321.6666666666667" cy="185.0" fill="black" id="v34" r="2.5" stroke="black" stroke-width="1"/><circle cx="296.6666666666667" cy="169.0" fill="black" id="v35" r="2.5" stroke="black" stroke-width="1"/><circle cx="404.73958333333337" cy="89.0" fill="black" id="v36" r="2.5" stroke="black" stroke-width="1"/><circle cx="571.5364583333334" cy="73.0" fill="black" id="v37" r="2.5" stroke="black" stroke-width="1"/><circle cx="671.6015625" cy="57.0" fill="black" id="v38" r="2.5" stroke="black" stroke-width="1"/><circle cx="454.9674479166667" cy="41.0" fill="black" id="v39" r="2.5" stroke="black" stroke-width="1"/><circle cx="188.33333333333334" cy="185.0" fill="black" id="v40" r="2.5" stroke="black" stroke-width="1"/><circle cx="163.33333333333334" cy="169.0" fill="black" id="v41" r="2.5" stroke="black" stroke-width="1"/><circle cx="309.150390625" cy="25.0" fill="black" id="v42" r="2.5" stroke="black" stroke-width="1"/><circle cx="88.33333333333334" cy="185.0" fill="black" id="v43" r="2.5" stroke="black" stroke-width="1"/><circle cx="63.33333333333334" cy="169.0" fill="black" id="v44" r="2.5" stroke="black" stroke-width="1"/><circle cx="186.24186197916669" cy="9.0" fill="black" id="v45" r="2.5" stroke="black" stroke-width="1"/></g></svg>