<?xml version="1.0" encoding="UTF-8" standalone="no"?><svg xmlns="http://www.w3.org/2000/svg" height="837" version="1.1" viewport="0 0 810 717" width="860"><g id="labelLayer"><text dominant-baseline="middle" style="font-size: smaller;" text-anchor="middle" x="604.2607946974147" y="542.5853389453209">1</text><text dominant-baseline="middle" style="font-size: smaller;" text-anchor="middle" x="305.0" y="211.0">1</text><text dominant-baseline="middle" style="font-size: smaller;" text-anchor="middle" x="457.175448917425" y="536.0702390500911">2</text><text dominant-baseline="middle" style="font-size: smaller;" text-anchor="middle" x="271.6666666666667" y="211.0">2</text><text dominant-baseline="middle" style="font-size: smaller;" text-anchor="middle" x="340.618956862461" y="463.75263021303317">3</text><text dominant-baseline="middle" style="font-size: smaller;" text-anchor="middle" x="238.33333333333334" y="211.0">3</text><text dominant-baseline="middle" style="font-size: smaller;" text-anchor="middle" x="465.58565203056617" y="586.4536782398675">4</text><text dominant-baseline="middle" style="font-size: smaller;" text-anchor="middle" x="438.33333333333337" y="211.0">4</text><text dominant-baseline="middle" style="font-size: smaller;" text-anchor="middle" x="393.5471327827277" y="550.134385193923">5</text><text dominant-baseline="middle" style="font-size: smaller;" text-anchor="middle" x="405.0" y="211.0">5</text><text dominant-baseline="middle" style="font-size: smaller;" text-anchor="middle" x="265.00475390993256" y="533.8985390850089">6</text><text dominant-baseline="middle" style="font-size: smaller;" text-anchor="middle" x="371.6666666666667" y="211.0">6</text><text dominant-baseline="middle" style="font-size: smaller;" text-anchor="middle" x="486.43485052217756" y="573.726213424543">7</text><text dominant-baseline="middle" style="font-size: smaller;" text-anchor="middle" x="471.6666666666667" y="211.0">7</text><text dominant-baseline="middle" style="font-size: smaller;" text-anchor="middle" x="719.943382089152" y="644.4380673074174">8</text><text dominant-baseline="middle" style="font-size: smaller;" text-anchor="middle" x="538.3333333333334" y="211.0">8</text><text dominant-baseline="middle" style="font-size: smaller;" text-anchor="middle" x="645.775334832525" y="598.3980280477888">9</text><text dominant-baseline="middle" style="font-size: smaller;" text-anchor="middle" x="505.00000000000006" y="211.0">9</text><text dominant-baseline="middle" style="font-size: smaller;" text-anchor="middle" x="725.0" y="550.6206288161034">10</text><text dominant-baseline="middle" style="font-size: smaller;" text-anchor="middle" x="571.6666666666667" y="211.0">10</text><text dominant-baseline="middle" style="font-size: smaller;" text-anchor="middle" x="238.10239078037125" y="309.56193269258256">11</text><text dominant-baseline="middle" style="font-size: smaller;" text-anchor="middle" x="338.33333333333337" y="211.0">11</text><text dominant-baseline="middle" style="font-size: smaller;" text-anchor="middle" x="719.411409293154" y="528.8449932662803">12</text><text dominant-baseline="middle" style="font-size: smaller;" text-anchor="middle" x="638.3333333333334" y="211.0">12</text><text dominant-baseline="middle" style="font-size: smaller;" text-anchor="middle" x="422.27630814391796" y="453.11130038415445">13</text><text dominant-baseline="middle" style="font-size: smaller;" text-anchor="middle" x="605.0" y="211.0">13</text><text dominant-baseline="middle" style="font-size: smaller;" text-anchor="middle" x="624.1748439051471" y="472.87377006635387">14</text><text dominant-baseline="middle" style="font-size: smaller;" text-anchor="middle" x="671.6666666666667" y="211.0">14</text><text dominant-baseline="middle" style="font-size: smaller;" text-anchor="middle" x="85.0" y="416.192400977852">15</text><text dominant-baseline="middle" style="font-size: smaller;" text-anchor="middle" x="205.0" y="211.0">15</text><text dominant-baseline="middle" style="font-size: smaller;" text-anchor="middle" x="159.2485406335967" y="457.45470031430773">16</text><text dominant-baseline="middle" style="font-size: smaller;" text-anchor="middle" x="171.66666666666669" y="211.0">16</text><text dominant-baseline="middle" style="font-size: smaller;" text-anchor="middle" x="190.041400747289" y="424.44486084514426">17</text><text dominant-baseline="middle" style="font-size: smaller;" text-anchor="middle" x="138.33333333333334" y="211.0">17</text><text dominant-baseline="middle" style="font-size: smaller;" text-anchor="middle" x="319.7767907560329" y="433.78317069497484">18</text><text dominant-baseline="middle" style="font-size: smaller;" text-anchor="middle" x="38.333333333333336" y="211.0">18</text><text dominant-baseline="middle" style="font-size: smaller;" text-anchor="middle" x="305.51934750117795" y="395.5612513096242">19</text><text dominant-baseline="middle" style="font-size: smaller;" text-anchor="middle" x="71.66666666666667" y="211.0">19</text><text dominant-baseline="middle" style="font-size: smaller;" text-anchor="middle" x="294.36379336234677" y="412.06617104420866">20</text><text dominant-baseline="middle" style="font-size: smaller;" text-anchor="middle" x="105.0" y="211.0">20</text><text dominant-baseline="middle" style="font-size: smaller;" text-anchor="middle" x="480.5824446266828" y="368.19783174965664">21</text><text dominant-baseline="middle" style="font-size: smaller;" text-anchor="middle" x="705.0" y="211.0">21</text><text dominant-baseline="middle" style="font-size: smaller;" text-anchor="middle" x="557.2978273942233" y="366.46047177759425">22</text><text dominant-baseline="middle" style="font-size: smaller;" text-anchor="middle" x="738.3333333333334" y="211.0">22</text><text dominant-baseline="middle" style="font-size: smaller;" text-anchor="middle" x="440.57561957205377" y="443.12148054480537">23</text><text dominant-baseline="middle" style="font-size: smaller;" text-anchor="middle" x="771.6666666666667" y="211.0">23</text></g><g id="leaderLayer"><path d="M604.2607946974147,532.5853389453209 305.0,217.0" fill="none" stroke="#666666" stroke-linecap="round" stroke-opacity="0.5" stroke-width="2"/><path d="M457.175448917425,526.0702390500911 271.6666666666667,217.0" fill="none" stroke="#666666" stroke-linecap="round" stroke-opacity="0.5" stroke-width="2"/><path d="M340.618956862461,453.75263021303317 238.33333333333334,217.0" fill="none" stroke="#666666" stroke-linecap="round" stroke-opacity="0.5" stroke-width="2"/><path d="M465.58565203056617,576.4536782398675 438.33333333333337,217.0" fill="none" stroke="#666666" stroke-linecap="round" stroke-opacity="0.5" stroke-width="2"/><path d="M393.5471327827277,540.134385193923 405.0,217.0" fill="none" stroke="#666666" stroke-linecap="round" stroke-opacity="0.5" stroke-width="2"/><path d="M265.00475390993256,523.8985390850089 371.6666666666667,217.0" fill="none" stroke="#666666" stroke-linecap="round" stroke-opacity="0.5" stroke-width="2"/><path d="M486.43485052217756,563.726213424543 471.6666666666667,217.0" fill="none" stroke="#666666" stroke-linecap="round" stroke-opacity="0.5" stroke-width="2"/><path d="M719.943382089152,634.4380673074174 538.3333333333334,217.0" fill="none" stroke="#666666" stroke-linecap="round" stroke-opacity="0.5" stroke-width="2"/><path d="M645.775334832525,588.3980280477888 505.00000000000006,217.0" fill="none" stroke="#666666" stroke-linecap="round" stroke-opacity="0.5" stroke-width="2"/><path d="M725.0,540.6206288161034 571.6666666666667,217.0" fill="none" stroke="#666666" stroke-linecap="round" stroke-opacity="0.5" stroke-width="2"/><path d="M238.10239078037125,299.56193269258256 338.33333333333337,217.0" fill="none" stroke="#666666" stroke-linecap="round" stroke-opacity="0.5" stroke-width="2"/><path d="M719.411409293154,518.8449932662803 638.3333333333334,217.0" fill="none" stroke="#666666" stroke-linecap="round" stroke-opacity="0.5" stroke-width="2"/><path d="M422.27630814391796,443.11130038415445 605.0,217.0" fill="none" stroke="#666666" stroke-linecap="round" stroke-opacity="0.5" stroke-width="2"/><path d="M624.1748439051471,462.87377006635387 671.6666666666667,217.0" fill="none" stroke="#666666" stroke-linecap="round" stroke-opacity="0.5" stroke-width="2"/><path d="M85.0,406.192400977852 205.0,217.0" fill="none" stroke="#666666" stroke-linecap="round" stroke-opacity="0.5" stroke-width="2"/><path d="M159.2485406335967,447.45470031430773 171.66666666666669,217.0" fill="none" stroke="#666666" stroke-linecap="round" stroke-opacity="0.5" stroke-width="2"/><path d="M190.041400747289,414.44486084514426 138.33333333333334,217.0" fill="none" stroke="#666666" stroke-linecap="round" stroke-opacity="0.5" stroke-width="2"/><path d="M319.7767907560329,423.78317069497484 38.333333333333336,217.0" fill="none" stroke="#666666" stroke-linecap="round" stroke-opacity="0.5" stroke-width="2"/><path d="M305.51934750117795,385.5612513096242 71.66666666666667,217.0" fill="none" stroke="#666666" stroke-linecap="round" stroke-opacity="0.5" stroke-width="2"/><path d="M294.36379336234677,402.06617104420866 105.0,217.0" fill="none" stroke="#666666" stroke-linecap="round" stroke-opacity="0.5" stroke-width="2"/><path d="M480.5824446266828,358.19783174965664 705.0,217.0" fill="none" stroke="#666666" stroke-linecap="round" stroke-opacity="0.5" stroke-width="2"/><path d="M557.2978273942233,356.46047177759425 738.3333333333334,217.0" fill="none" stroke="#666666" stroke-linecap="round" stroke-opacity="0.5" stroke-width="2"/><path d="M440.57561957205377,433.12148054480537 771.6666666666667,217.0" fill="none" stroke="#666666" stroke-linecap="round" stroke-opacity="0.5" stroke-width="2"/></g><g id="backgroundLayer"><rect fill="none" height="500" stroke="grey" stroke-width="2" width="800" x="5.0" y="217.0"/></g><g id="siteLayer"><path d="M602.2607946974147,530.5853389453209 606.2607946974147,534.5853389453209 M 602.2607946974147,534.5853389453209 606.2607946974147,530.5853389453209" fill="none" id="s1" stroke="black" stroke-width="1.5"/><path d="M455.175448917425,524.0702390500911 459.175448917425,528.0702390500911 M 455.175448917425,528.0702390500911 459.175448917425,524.0702390500911" fill="none" id="s2" stroke="black" stroke-width="1.5"/><path d="M338.618956862461,451.75263021303317 342.618956862461,455.75263021303317 M 338.618956862461,455.75263021303317 342.618956862461,451.75263021303317" fill="none" id="s3" stroke="black" stroke-width="1.5"/><path d="M463.58565203056617,574.4536782398675 467.58565203056617,578.4536782398675 M 463.58565203056617,578.4536782398675 467.58565203056617,574.4536782398675" fill="none" id="s4" stroke="black" stroke-width="1.5"/><path d="M391.5471327827277,538.134385193923 395.5471327827277,542.134385193923 M 391.5471327827277,542.134385193923 395.5471327827277,538.134385193923" fill="none" id="s5" stroke="black" stroke-width="1.5"/><path d="M263.00475390993256,521.8985390850089 267.00475390993256,525.8985390850089 M 263.00475390993256,525.8985390850089 267.00475390993256,521.8985390850089" fill="none" id="s6" stroke="black" stroke-width="1.5"/><path d="M484.43485052217756,561.726213424543 488.43485052217756,565.726213424543 M 484.43485052217756,565.726213424543 488.43485052217756,561.726213424543" fill="none" id="s7" stroke="black" stroke-width="1.5"/><path d="M717.943382089152,632.4380673074174 721.943382089152,636.4380673074174 M 717.943382089152,636.4380673074174 721.943382089152,632.4380673074174" fill="none" id="s8" stroke="black" stroke-width="1.5"/><path d="M643.775334832525,586.3980280477888 647.775334832525,590.3980280477888 M 643.775334832525,590.3980280477888 647.775334832525,586.3980280477888" fill="none" id="s9" stroke="black" stroke-width="1.5"/><path d="M723.0,538.6206288161034 727.0,542.6206288161034 M 723.0,542.6206288161034 727.0,538.6206288161034" fill="none" id="s10" stroke="black" stroke-width="1.5"/><path d="M236.10239078037125,297.56193269258256 240.10239078037125,301.56193269258256 M 236.10239078037125,301.56193269258256 240.10239078037125,297.56193269258256" fill="none" id="s11" stroke="black" stroke-width="1.5"/><path d="M717.411409293154,516.8449932662803 721.411409293154,520.8449932662803 M 717.411409293154,520.8449932662803 721.411409293154,516.8449932662803" fill="none" id="s12" stroke="black" stroke-width="1.5"/><path d="M420.27630814391796,441.11130038415445 424.27630814391796,445.11130038415445 M 420.27630814391796,445.11130038415445 424.27630814391796,441.11130038415445" fill="none" id="s13" stroke="black" stroke-width="1.5"/><path d="M622.1748439051471,460.87377006635387 626.1748439051471,464.87377006635387 M 622.1748439051471,464.87377006635387 626.1748439051471,460.87377006635387" fill="none" id="s14" stroke="black" stroke-width="1.5"/><path d="M83.0,404.192400977852 87.0,408.192400977852 M 83.0,408.192400977852 87.0,404.192400977852" fill="none" id="s15" stroke="black" stroke-width="1.5"/><path d="M157.2485406335967,445.45470031430773 161.2485406335967,449.45470031430773 M 157.2485406335967,449.45470031430773 161.2485406335967,445.45470031430773" fill="none" id="s16" stroke="black" stroke-width="1.5"/><path d="M188.041400747289,412.44486084514426 192.041400747289,416.44486084514426 M 188.041400747289,416.44486084514426 192.041400747289,412.44486084514426" fill="none" id="s17" stroke="black" stroke-width="1.5"/><path d="M317.7767907560329,421.78317069497484 321.7767907560329,425.78317069497484 M 317.7767907560329,425.78317069497484 321.7767907560329,421.78317069497484" fill="none" id="s18" stroke="black" stroke-width="1.5"/><path d="M303.51934750117795,383.5612513096242 307.51934750117795,387.5612513096242 M 303.51934750117795,387.5612513096242 307.51934750117795,383.5612513096242" fill="none" id="s19" stroke="black" stroke-width="1.5"/><path d="M292.36379336234677,400.06617104420866 296.36379336234677,404.06617104420866 M 292.36379336234677,404.06617104420866 296.36379336234677,400.06617104420866" fill="none" id="s20" stroke="black" stroke-width="1.5"/><path d="M478.5824446266828,356.19783174965664 482.5824446266828,360.19783174965664 M 478.5824446266828,360.19783174965664 482.5824446266828,356.19783174965664" fill="none" id="s21" stroke="black" stroke-width="1.5"/><path d="M555.2978273942233,354.46047177759425 559.2978273942233,358.46047177759425 M 555.2978273942233,358.46047177759425 559.2978273942233,354.46047177759425" fill="none" id="s22" stroke="black" stroke-width="1.5"/><path d="M438.57561957205377,431.12148054480537 442.57561957205377,435.12148054480537 M 438.57561957205377,435.12148054480537 442.57561957205377,431.12148054480537" fill="none" id="s23" stroke="black" stroke-width="1.5"/></g><g id="edgeLayer"><path d="M305.0,201.0 305.0,185.0 288.33333333333337,185.0" fill="none" stroke="black" stroke-width="2"/><path d="M271.6666666666667,201.0 271.6666666666667,185.0 288.33333333333337,185.0" fill="none" stroke="black" stroke-width="2"/><path d="M238.33333333333334,201.0 238.33333333333334,169.0 263.33333333333337,169.0" fill="none" stroke="black" stroke-width="2"/><path d="M438.33333333333337,201.0 438.33333333333337,185.0 421.6666666666667,185.0" fill="none" stroke="black" stroke-width="2"/><path d="M405.0,201.0 405.0,185.0 421.6666666666667,185.0" fill="none" stroke="black" stroke-width="2"/><path d="M371.6666666666667,201.0 371.6666666666667,169.0 396.6666666666667,169.0" fill="none" stroke="black" stroke-width="2"/><path d="M471.6666666666667,201.0 471.6666666666667,153.0 434.1666666666667,153.0" fill="none" stroke="black" stroke-width="2"/><path d="M538.3333333333334,201.0 538.3333333333334,185.0 521.6666666666667,185.0" fill="none" stroke="black" stroke-width="2"/><path d="M505.00000000000006,201.0 505.00000000000006,185.0 521.6666666666667,185.0" fill="none" stroke="black" stroke-width="2"/><path d="M571.6666666666667,201.0 571.6666666666667,169.0 546.6666666666667,169.0" fill="none" stroke="black" stroke-width="2"/><path d="M338.33333333333337,201.0 338.33333333333337,121.0 414.37500000000006,121.0" fill="none" stroke="black" stroke-width="2"/><path d="M638.3333333333334,201.0 638.3333333333334,185.0 621.6666666666667,185.0" fill="none" stroke="black" stroke-width="2"/><path d="M605.0,201.0 605.0,185.0 621.6666666666667,185.0" fill="none" stroke="black" stroke-width="2"/><path d="M671.6666666666667,201.0 671.6666666666667,169.0 646.6666666666667,169.0" fill="none" stroke="black" stroke-width="2"/><path d="M205.0,201.0 205.0,73.0 348.88020833333337,73.0" fill="none" stroke="black" stroke-width="2"/><path d="M171.66666666666669,201.0 171.66666666666669,57.0 260.2734375,57.0" fill="none" stroke="black" stroke-width="2"/><path d="M138.33333333333334,201.0 138.33333333333334,41.0 199.30338541666669,41.0" fill="none" stroke="black" stroke-width="2"/><path d="M38.333333333333336,201.0 38.333333333333336,185.0 55.0,185.0" fill="none" stroke="black" stroke-width="2"/><path d="M71.66666666666667,201.0 71.66666666666667,185.0 55.0,185.0" fill="none" stroke="black" stroke-width="2"/><path d="M105.0,201.0 105.0,169.0 80.0,169.0" fill="none" stroke="black" stroke-width="2"/><path d="M705.0,201.0 705.0,185.0 721.6666666666667,185.0" fill="none" stroke="black" stroke-width="2"/><path d="M738.3333333333334,201.0 738.3333333333334,185.0 721.6666666666667,185.0" fill="none" stroke="black" stroke-width="2"/><path d="M771.6666666666667,201.0 771.6666666666667,169.0 746.6666666666667,169.0" fill="none" stroke="black" stroke-width="2"/><path d="M288.33333333333337,185.0 288.33333333333337,169.0 263.33333333333337,169.0" fill="none" stroke="black" stroke-width="2"/><path d="M263.33333333333337,169.0 263.33333333333337,105.0 338.85416666666674,105.0" fill="none" stroke="black" stroke-width="2"/><path d="M421.6666666666667,185.0 421.6666666666667,169.0 396.6666666666667,169.0" fill="none" stroke="black" stroke-width="2"/><path d="M396.6666666666667,169.0 396.6666666666667,153.0 434.1666666666667,153.0" fill="none" stroke="black" stroke-width="2"/><path d="M434.1666666666667,153.0 434.1666666666667,137.0 490.41666666666674,137.0" fill="none" stroke="black" stroke-width="2"/><path d="M521.6666666666667,185.0 521.6666666666667,169.0 546.6666666666667,169.0" fill="none" stroke="black" stroke-width="2"/><path d="M546.6666666666667,169.0 546.6666666666667,137.0 490.41666666666674,137.0" fill="none" stroke="black" stroke-width="2"/><path d="M490.41666666666674,137.0 490.41666666666674,121.0 414.37500000000006,121.0" fill="none" stroke="black" stroke-width="2"/><path d="M414.37500000000006,121.0 414.37500000000006,105.0 338.85416666666674,105.0" fill="none" stroke="black" stroke-width="2"/><path d="M338.85416666666674,105.0 338.85416666666674,89.0 492.76041666666674,89.0" fill="none" stroke="black" stroke-width="2"/><path d="M621.6666666666667,185.0 621.6666666666667,169.0 646.6666666666667,169.0" fill="none" stroke="black" stroke-width="2"/><path d="M646.6666666666667,169.0 646.6666666666667,89.0 492.76041666666674,89.0" fill="none" stroke="black" stroke-width="2"/><path d="M492.76041666666674,89.0 492.76041666666674,73.0 348.88020833333337,73.0" fill="none" stroke="black" stroke-width="2"/><path d="M348.88020833333337,73.0 348.88020833333337,57.0 260.2734375,57.0" fill="none" stroke="black" stroke-width="2"/><path d="M260.2734375,57.0 260.2734375,41.0 199.30338541666669,41.0" fill="none" stroke="black" stroke-width="2"/><path d="M199.30338541666669,41.0 199.30338541666669,25.0 139.65169270833334,25.0" fill="none" stroke="black" stroke-width="2"/><path d="M55.0,185.0 55.0,169.0 80.0,169.0" fill="none" stroke="black" stroke-width="2"/><path d="M80.0,169.0 80.0,25.0 139.65169270833334,25.0" fill="none" stroke="black" stroke-width="2"/><path d="M139.65169270833334,25.0 139.65169270833334,9.0 443.15917968750006,9.0" fill="none" stroke="black" stroke-width="2"/><path d="M721.6666666666667,185.0 721.6666666666667,169.0 746.6666666666667,169.0" fill="none" stroke="black" stroke-width="2"/><path d="M746.6666666666667,169.0 746.6666666666667,9.0 443.15917968750006,9.0" fill="none" stroke="black" stroke-width="2"/></g><g id="vertexLayer"><circle cx="305.0" cy="201.0" fill="white" id="v1" r="2.5" stroke="black" stroke-width="1"/><circle cx="271.6666666666667" cy="201.0" fill="white" id="v2" r="2.5" stroke="black" stroke-width="1"/><circle cx="238.33333333333334" cy="201.0" fill="white" id="v3" r="2.5" stroke="black" stroke-width="1"/><circle cx="438.33333333333337" cy="201.0" fill="white" id="v4" r="2.5" stroke="black" stroke-width="1"/><circle cx="405.0" cy="201.0" fill="white" id="v5" r="2.5" stroke="black" stroke-width="1"/><circle cx="371.6666666666667" cy="201.0" fill="white" id="v6" r="2.5" stroke="black" stroke-width="1"/><circle cx="471.6666666666667" cy="201.0" fill="white" id="v7" r="2.5" stroke="black" stroke-width="1"/><circle cx="538.3333333333334" cy="201.0" fill="white" id="v8" r="2.5" stroke="black" stroke-width="1"/><circle cx="505.00000000000006" cy="201.0" fill="white" id="v9" r="2.5" stroke="black" stroke-width="1"/><circle cx="571.6666666666667" cy="201.0" fill="white" id="v10" r="2.5" stroke="black" stroke-width="1"/><circle cx="338.33333333333337" cy="201.0" fill="white" id="v11" r="2.5" stroke="black" stroke-width="1"/><circle cx="638.3333333333334" cy="201.0" fill="white" id="v12" r="2.5" stroke="black" stroke-width="1"/><circle cx="605.0" cy="201.0" fill="white" id="v13" r="2.5" stroke="black" stroke-width="1"/><circle cx="671.6666666666667" cy="201.0" fill="white" id="v14" r="2.5" stroke="black" stroke-width="1"/><circle cx="205.0" cy="201.0" fill="white" id="v15" r="2.5" stroke="black" stroke-width="1"/><circle cx="171.66666666666669" cy="201.0" fill="white" id="v16" r="2.5" stroke="black" stroke-width="1"/><circle cx="138.33333333333334" cy="201.0" fill="white" id="v17" r="2.5" stroke="black" stroke-width="1"/><circle cx="38.333333333333336" cy="201.0" fill="white" id="v18" r="2.5" stroke="black" stroke-width="1"/><circle cx="71.66666666666667" cy="201.0" fill="white" id="v19" r="2.5" stroke="black" stroke-width="1"/><circle cx="105.0" cy="201.0" fill="white" id="v20" r="2.5" stroke="black" stroke-width="1"/><circle cx="705.0" cy="201.0" fill="white" id="v21" r="2.5" stroke="black" stroke-width="1"/><circle cx="738.3333333333334" cy="201.0" fill="white" id="v22" r="2.5" stroke="black" stroke-width="1"/><circle cx="771.6666666666667" cy="201.0" fill="white" id="v23" r="2.5" stroke="black" stroke-width="1"/><circle cx="288.33333333333337" cy="185.0" fill="black" id="v24" r="2.5" stroke="black" stroke-width="1"/><circle cx="263.33333333333337" cy="169.0" fill="black" id="v25" r="2.5" stroke="black" stroke-width="1"/><circle cx="421.6666666666667" cy="185.0" fill="black" id="v26" r="2.5" stroke="black" stroke-width="1"/><circle cx="396.6666666666667" cy="169.0" fill="black" id="v27" r="2.5" stroke="black" stroke-width="1"/><circle cx="434.1666666666667" cy="153.0" fill="black" id="v28" r="2.5" stroke="black" stroke-width="1"/><circle cx="521.6666666666667" cy="185.0" fill="black" id="v29" r="2.5" stroke="black" stroke-width="1"/><circle cx="546.6666666666667" cy="169.0" fill="black" id="v30" r="2.5" stroke="black" stroke-width="1"/><circle cx="490.41666666666674" cy="137.0" fill="black" id="v31" r="2.5" stroke="black" stroke-width="1"/><circle cx="414.37500000000006" cy="121.0" fill="black" id="v32" r="2.5" stroke="black" stroke-width="1"/><circle cx="338.85416666666674" cy="105.0" fill="black" id="v33" r="2.5" stroke="black" stroke-width="1"/><circle cx="621.6666666666667" cy="185.0" fill="black" id="v34" r="2.5" stroke="black" stroke-width="1"/><circle cx="646.6666666666667" cy="169.0" fill="black" id="v35" r="2.5" stroke="black" stroke-width="1"/><circle cx="492.76041666666674" cy="89.0" fill="black" id="v36" r="2.5" stroke="black" stroke-width="1"/><circle cx="348.88020833333337" cy="73.0" fill="black" id="v37" r="2.5" stroke="black" stroke-width="1"/><circle cx="260.2734375" cy="57.0" fill="black" id="v38" r="2.5" stroke="black" stroke-width="1"/><circle cx="199.30338541666669" cy="41.0" fill="black" id="v39" r="2.5" stroke="black" stroke-width="1"/><circle cx="55.0" cy="185.0" fill="black" id="v40" r="2.5" stroke="black" stroke-width="1"/><circle cx="80.0" cy="169.0" fill="black" id="v41" r="2.5" stroke="black" stroke-width="1"/><circle cx="139.65169270833334" cy="25.0" fill="black" id="v42" r="2.5" stroke="black" stroke-width="1"/><circle cx="721.6666666666667" cy="185.0" fill="black" id="v43" r="2.5" stroke="black" stroke-width="1"/><circle cx="746.6666666666667" cy="169.0" fill="black" id="v44" r="2.5" stroke="black" stroke-width="1"/><circle cx="443.15917968750006" cy="9.0" fill="black" id="v45" r="2.5" stroke="black" stroke-width="1"/></g></svg>