<?xml version="1.0" encoding="UTF-8" standalone="no"?><svg xmlns="http://www.w3.org/2000/svg" height="633" version="1.1" viewport="0 0 640 513" width="690"><g id="labelLayer"><text dominant-baseline="middle" style="font-size: smaller;" text-anchor="middle" x="108.125" y="453.625">1</text><text dominant-baseline="middle" style="font-size: smaller;" text-anchor="middle" x="35.0" y="147.0">1</text><text dominant-baseline="middle" style="font-size: smaller;" text-anchor="middle" x="177.5" y="449.875">2</text><text dominant-baseline="middle" style="font-size: smaller;" text-anchor="middle" x="65.0" y="147.0">2</text><text dominant-baseline="middle" style="font-size: smaller;" text-anchor="middle" x="190.625" y="410.5">3</text><text dominant-baseline="middle" style="font-size: smaller;" text-anchor="middle" x="95.0" y="147.0">3</text><text dominant-baseline="middle" style="font-size: smaller;" text-anchor="middle" x="181.25" y="410.5">4</text><text dominant-baseline="middle" style="font-size: smaller;" text-anchor="middle" x="125.0" y="147.0">4</text><text dominant-baseline="middle" style="font-size: smaller;" text-anchor="middle" x="185.9375" y="414.25">5</text><text dominant-baseline="middle" style="font-size: smaller;" text-anchor="middle" x="155.0" y="147.0">5</text><text dominant-baseline="middle" style="font-size: smaller;" text-anchor="middle" x="246.875" y="450.8125">6</text><text dominant-baseline="middle" style="font-size: smaller;" text-anchor="middle" x="185.0" y="147.0">6</text><text dominant-baseline="middle" style="font-size: smaller;" text-anchor="middle" x="280.625" y="429.25">7</text><text dominant-baseline="middle" style="font-size: smaller;" text-anchor="middle" x="215.0" y="147.0">7</text><text dominant-baseline="middle" style="font-size: smaller;" text-anchor="middle" x="338.75" y="463.0">8</text><text dominant-baseline="middle" style="font-size: smaller;" text-anchor="middle" x="245.0" y="147.0">8</text><text dominant-baseline="middle" style="font-size: smaller;" text-anchor="middle" x="356.5625" y="489.25">9</text><text dominant-baseline="middle" style="font-size: smaller;" text-anchor="middle" x="275.0" y="147.0">9</text><text dominant-baseline="middle" style="font-size: smaller;" text-anchor="middle" x="320.9375" y="393.625">10</text><text dominant-baseline="middle" style="font-size: smaller;" text-anchor="middle" x="335.0" y="147.0">10</text><text dominant-baseline="middle" style="font-size: smaller;" text-anchor="middle" x="361.25" y="433.9375">11</text><text dominant-baseline="middle" style="font-size: smaller;" text-anchor="middle" x="425.0" y="147.0">11</text><text dominant-baseline="middle" style="font-size: smaller;" text-anchor="middle" x="315.3125" y="404.875">12</text><text dominant-baseline="middle" style="font-size: smaller;" text-anchor="middle" x="365.0" y="147.0">12</text><text dominant-baseline="middle" style="font-size: smaller;" text-anchor="middle" x="362.1875" y="402.0625">13</text><text dominant-baseline="middle" style="font-size: smaller;" text-anchor="middle" x="395.0" y="147.0">13</text><text dominant-baseline="middle" style="font-size: smaller;" text-anchor="middle" x="396.875" y="463.0">14</text><text dominant-baseline="middle" style="font-size: smaller;" text-anchor="middle" x="455.0" y="147.0">14</text><text dominant-baseline="middle" style="font-size: smaller;" text-anchor="middle" x="436.25" y="390.8125">15</text><text dominant-baseline="middle" style="font-size: smaller;" text-anchor="middle" x="485.0" y="147.0">15</text><text dominant-baseline="middle" style="font-size: smaller;" text-anchor="middle" x="401.5625" y="464.875">16</text><text dominant-baseline="middle" style="font-size: smaller;" text-anchor="middle" x="545.0" y="147.0">16</text><text dominant-baseline="middle" style="font-size: smaller;" text-anchor="middle" x="430.625" y="401.125">17</text><text dominant-baseline="middle" style="font-size: smaller;" text-anchor="middle" x="515.0" y="147.0">17</text><text dominant-baseline="middle" style="font-size: smaller;" text-anchor="middle" x="380.0" y="468.625">18</text><text dominant-baseline="middle" style="font-size: smaller;" text-anchor="middle" x="305.0" y="147.0">18</text><text dominant-baseline="middle" style="font-size: smaller;" text-anchor="middle" x="468.125" y="479.875">19</text><text dominant-baseline="middle" style="font-size: smaller;" text-anchor="middle" x="575.0" y="147.0">19</text><text dominant-baseline="middle" style="font-size: smaller;" text-anchor="middle" x="480.3125" y="476.125">20</text><text dominant-baseline="middle" style="font-size: smaller;" text-anchor="middle" x="605.0" y="147.0">20</text></g><g id="leaderLayer"><path d="M108.125,443.625 35.0,153.0" fill="none" stroke="#666666" stroke-linecap="round" stroke-opacity="0.5" stroke-width="2"/><path d="M177.5,439.875 65.0,153.0" fill="none" stroke="#666666" stroke-linecap="round" stroke-opacity="0.5" stroke-width="2"/><path d="M190.625,400.5 95.0,153.0" fill="none" stroke="#666666" stroke-linecap="round" stroke-opacity="0.5" stroke-width="2"/><path d="M181.25,400.5 125.0,153.0" fill="none" stroke="#666666" stroke-linecap="round" stroke-opacity="0.5" stroke-width="2"/><path d="M185.9375,404.25 155.0,153.0" fill="none" stroke="#666666" stroke-linecap="round" stroke-opacity="0.5" stroke-width="2"/><path d="M246.875,440.8125 185.0,153.0" fill="none" stroke="#666666" stroke-linecap="round" stroke-opacity="0.5" stroke-width="2"/><path d="M280.625,419.25 215.0,153.0" fill="none" stroke="#666666" stroke-linecap="round" stroke-opacity="0.5" stroke-width="2"/><path d="M338.75,453.0 245.0,153.0" fill="none" stroke="#666666" stroke-linecap="round" stroke-opacity="0.5" stroke-width="2"/><path d="M356.5625,479.25 275.0,153.0" fill="none" stroke="#666666" stroke-linecap="round" stroke-opacity="0.5" stroke-width="2"/><path d="M320.9375,383.625 335.0,153.0" fill="none" stroke="#666666" stroke-linecap="round" stroke-opacity="0.5" stroke-width="2"/><path d="M361.25,423.9375 425.0,153.0" fill="none" stroke="#666666" stroke-linecap="round" stroke-opacity="0.5" stroke-width="2"/><path d="M315.3125,394.875 365.0,153.0" fill="none" stroke="#666666" stroke-linecap="round" stroke-opacity="0.5" stroke-width="2"/><path d="M362.1875,392.0625 395.0,153.0" fill="none" stroke="#666666" stroke-linecap="round" stroke-opacity="0.5" stroke-width="2"/><path d="M396.875,453.0 455.0,153.0" fill="none" stroke="#666666" stroke-linecap="round" stroke-opacity="0.5" stroke-width="2"/><path d="M436.25,380.8125 485.0,153.0" fill="none" stroke="#666666" stroke-linecap="round" stroke-opacity="0.5" stroke-width="2"/><path d="M401.5625,454.875 545.0,153.0" fill="none" stroke="#666666" stroke-linecap="round" stroke-opacity="0.5" stroke-width="2"/><path d="M430.625,391.125 515.0,153.0" fill="none" stroke="#666666" stroke-linecap="round" stroke-opacity="0.5" stroke-width="2"/><path d="M380.0,458.625 305.0,153.0" fill="none" stroke="#666666" stroke-linecap="round" stroke-opacity="0.5" stroke-width="2"/><path d="M468.125,469.875 575.0,153.0" fill="none" stroke="#666666" stroke-linecap="round" stroke-opacity="0.5" stroke-width="2"/><path d="M480.3125,466.125 605.0,153.0" fill="none" stroke="#666666" stroke-linecap="round" stroke-opacity="0.5" stroke-width="2"/></g><g id="backgroundLayer"><rect fill="none" height="360" stroke="grey" stroke-width="2" width="630" x="5.0" y="153.0"/></g><g id="siteLayer"><path d="M106.125,441.625 110.125,445.625 M 106.125,445.625 110.125,441.625" fill="none" id="s1" stroke="#1f78b4" stroke-width="1.5"/><path d="M175.5,437.875 179.5,441.875 M 175.5,441.875 179.5,437.875" fill="none" id="s2" stroke="#1f78b4" stroke-width="1.5"/><path d="M188.625,398.5 192.625,402.5 M 188.625,402.5 192.625,398.5" fill="none" id="s3" stroke="#1f78b4" stroke-width="1.5"/><path d="M179.25,398.5 183.25,402.5 M 179.25,402.5 183.25,398.5" fill="none" id="s4" stroke="#1f78b4" stroke-width="1.5"/><path d="M183.9375,402.25 187.9375,406.25 M 183.9375,406.25 187.9375,402.25" fill="none" id="s5" stroke="#1f78b4" stroke-width="1.5"/><path d="M244.875,438.8125 248.875,442.8125 M 244.875,442.8125 248.875,438.8125" fill="none" id="s6" stroke="#33a02c" stroke-width="1.5"/><path d="M278.625,417.25 282.625,421.25 M 278.625,421.25 282.625,417.25" fill="none" id="s7" stroke="#33a02c" stroke-width="1.5"/><path d="M336.75,451.0 340.75,455.0 M 336.75,455.0 340.75,451.0" fill="none" id="s8" stroke="#33a02c" stroke-width="1.5"/><path d="M354.5625,477.25 358.5625,481.25 M 354.5625,481.25 358.5625,477.25" fill="none" id="s9" stroke="#33a02c" stroke-width="1.5"/><path d="M318.9375,381.625 322.9375,385.625 M 318.9375,385.625 322.9375,381.625" fill="none" id="s10" stroke="#e31a1c" stroke-width="1.5"/><path d="M359.25,421.9375 363.25,425.9375 M 359.25,425.9375 363.25,421.9375" fill="none" id="s11" stroke="#e31a1c" stroke-width="1.5"/><path d="M313.3125,392.875 317.3125,396.875 M 313.3125,396.875 317.3125,392.875" fill="none" id="s12" stroke="#e31a1c" stroke-width="1.5"/><path d="M360.1875,390.0625 364.1875,394.0625 M 360.1875,394.0625 364.1875,390.0625" fill="none" id="s13" stroke="#e31a1c" stroke-width="1.5"/><path d="M394.875,451.0 398.875,455.0 M 394.875,455.0 398.875,451.0" fill="none" id="s14" stroke="#e31a1c" stroke-width="1.5"/><path d="M434.25,378.8125 438.25,382.8125 M 434.25,382.8125 438.25,378.8125" fill="none" id="s15" stroke="#e31a1c" stroke-width="1.5"/><path d="M399.5625,452.875 403.5625,456.875 M 399.5625,456.875 403.5625,452.875" fill="none" id="s16" stroke="#e31a1c" stroke-width="1.5"/><path d="M428.625,389.125 432.625,393.125 M 428.625,393.125 432.625,389.125" fill="none" id="s17" stroke="#e31a1c" stroke-width="1.5"/><path d="M378.0,456.625 382.0,460.625 M 378.0,460.625 382.0,456.625" fill="none" id="s18" stroke="#e31a1c" stroke-width="1.5"/><path d="M466.125,467.875 470.125,471.875 M 466.125,471.875 470.125,467.875" fill="none" id="s19" stroke="#ff7f00" stroke-width="1.5"/><path d="M478.3125,464.125 482.3125,468.125 M 478.3125,468.125 482.3125,464.125" fill="none" id="s20" stroke="#ff7f00" stroke-width="1.5"/></g><g id="edgeLayer"><path d="M35.0,137.0 35.0,121.0 50.0,121.0" fill="none" stroke="black" stroke-width="2"/><path d="M65.0,137.0 65.0,121.0 50.0,121.0" fill="none" stroke="black" stroke-width="2"/><path d="M95.0,137.0 95.0,105.0 72.5,105.0" fill="none" stroke="black" stroke-width="2"/><path d="M125.0,137.0 125.0,89.0 98.75,89.0" fill="none" stroke="black" stroke-width="2"/><path d="M155.0,137.0 155.0,73.0 126.875,73.0" fill="none" stroke="black" stroke-width="2"/><path d="M185.0,137.0 185.0,121.0 200.0,121.0" fill="none" stroke="black" stroke-width="2"/><path d="M215.0,137.0 215.0,121.0 200.0,121.0" fill="none" stroke="black" stroke-width="2"/><path d="M245.0,137.0 245.0,105.0 222.5,105.0" fill="none" stroke="black" stroke-width="2"/><path d="M275.0,137.0 275.0,89.0 248.75,89.0" fill="none" stroke="black" stroke-width="2"/><path d="M335.0,137.0 335.0,89.0 368.75,89.0" fill="none" stroke="black" stroke-width="2"/><path d="M425.0,137.0 425.0,105.0 402.5,105.0" fill="none" stroke="black" stroke-width="2"/><path d="M365.0,137.0 365.0,121.0 380.0,121.0" fill="none" stroke="black" stroke-width="2"/><path d="M395.0,137.0 395.0,121.0 380.0,121.0" fill="none" stroke="black" stroke-width="2"/><path d="M455.0,137.0 455.0,121.0 470.0,121.0" fill="none" stroke="black" stroke-width="2"/><path d="M485.0,137.0 485.0,121.0 470.0,121.0" fill="none" stroke="black" stroke-width="2"/><path d="M545.0,137.0 545.0,121.0 530.0,121.0" fill="none" stroke="black" stroke-width="2"/><path d="M515.0,137.0 515.0,121.0 530.0,121.0" fill="none" stroke="black" stroke-width="2"/><path d="M305.0,137.0 305.0,41.0 389.84375,41.0" fill="none" stroke="black" stroke-width="2"/><path d="M575.0,137.0 575.0,121.0 590.0,121.0" fill="none" stroke="black" stroke-width="2"/><path d="M605.0,137.0 605.0,121.0 590.0,121.0" fill="none" stroke="black" stroke-width="2"/><path d="M50.0,121.0 50.0,105.0 72.5,105.0" fill="none" stroke="black" stroke-width="2"/><path d="M72.5,105.0 72.5,89.0 98.75,89.0" fill="none" stroke="black" stroke-width="2"/><path d="M98.75,89.0 98.75,73.0 126.875,73.0" fill="none" stroke="black" stroke-width="2"/><path d="M126.875,73.0 126.875,57.0 187.8125,57.0" fill="none" stroke="black" stroke-width="2"/><path d="M200.0,121.0 200.0,105.0 222.5,105.0" fill="none" stroke="black" stroke-width="2"/><path d="M222.5,105.0 222.5,89.0 248.75,89.0" fill="none" stroke="black" stroke-width="2"/><path d="M248.75,89.0 248.75,57.0 187.8125,57.0" fill="none" stroke="black" stroke-width="2"/><path d="M187.8125,57.0 187.8125,25.0 288.828125,25.0" fill="none" stroke="black" stroke-width="2"/><path d="M380.0,121.0 380.0,105.0 402.5,105.0" fill="none" stroke="black" stroke-width="2"/><path d="M402.5,105.0 402.5,89.0 368.75,89.0" fill="none" stroke="black" stroke-width="2"/><path d="M368.75,89.0 368.75,73.0 419.375,73.0" fill="none" stroke="black" stroke-width="2"/><path d="M470.0,121.0 470.0,73.0 419.375,73.0" fill="none" stroke="black" stroke-width="2"/><path d="M419.375,73.0 419.375,57.0 474.6875,57.0" fill="none" stroke="black" stroke-width="2"/><path d="M530.0,121.0 530.0,57.0 474.6875,57.0" fill="none" stroke="black" stroke-width="2"/><path d="M474.6875,57.0 474.6875,41.0 389.84375,41.0" fill="none" stroke="black" stroke-width="2"/><path d="M389.84375,41.0 389.84375,25.0 288.828125,25.0" fill="none" stroke="black" stroke-width="2"/><path d="M288.828125,25.0 288.828125,9.0 439.4140625,9.0" fill="none" stroke="black" stroke-width="2"/><path d="M590.0,121.0 590.0,9.0 439.4140625,9.0" fill="none" stroke="black" stroke-width="2"/></g><g id="vertexLayer"><circle cx="35.0" cy="137.0" fill="#1f78b4" id="v1" r="2.5" stroke="black" stroke-width="1"/><circle cx="65.0" cy="137.0" fill="#1f78b4" id="v2" r="2.5" stroke="black" stroke-width="1"/><circle cx="95.0" cy="137.0" fill="#1f78b4" id="v3" r="2.5" stroke="black" stroke-width="1"/><circle cx="125.0" cy="137.0" fill="#1f78b4" id="v4" r="2.5" stroke="black" stroke-width="1"/><circle cx="155.0" cy="137.0" fill="#1f78b4" id="v5" r="2.5" stroke="black" stroke-width="1"/><circle cx="185.0" cy="137.0" fill="#33a02c" id="v6" r="2.5" stroke="black" stroke-width="1"/><circle cx="215.0" cy="137.0" fill="#33a02c" id="v7" r="2.5" stroke="black" stroke-width="1"/><circle cx="245.0" cy="137.0" fill="#33a02c" id="v8" r="2.5" stroke="black" stroke-width="1"/><circle cx="275.0" cy="137.0" fill="#33a02c" id="v9" r="2.5" stroke="black" stroke-width="1"/><circle cx="335.0" cy="137.0" fill="#e31a1c" id="v10" r="2.5" stroke="black" stroke-width="1"/><circle cx="425.0" cy="137.0" fill="#e31a1c" id="v11" r="2.5" stroke="black" stroke-width="1"/><circle cx="365.0" cy="137.0" fill="#e31a1c" id="v12" r="2.5" stroke="black" stroke-width="1"/><circle cx="395.0" cy="137.0" fill="#e31a1c" id="v13" r="2.5" stroke="black" stroke-width="1"/><circle cx="455.0" cy="137.0" fill="#e31a1c" id="v14" r="2.5" stroke="black" stroke-width="1"/><circle cx="485.0" cy="137.0" fill="#e31a1c" id="v15" r="2.5" stroke="black" stroke-width="1"/><circle cx="545.0" cy="137.0" fill="#e31a1c" id="v16" r="2.5" stroke="black" stroke-width="1"/><circle cx="515.0" cy="137.0" fill="#e31a1c" id="v17" r="2.5" stroke="black" stroke-width="1"/><circle cx="305.0" cy="137.0" fill="#e31a1c" id="v18" r="2.5" stroke="black" stroke-width="1"/><circle cx="575.0" cy="137.0" fill="#ff7f00" id="v19" r="2.5" stroke="black" stroke-width="1"/><circle cx="605.0" cy="137.0" fill="#ff7f00" id="v20" r="2.5" stroke="black" stroke-width="1"/><circle cx="50.0" cy="121.0" fill="black" id="v21" r="2.5" stroke="black" stroke-width="1"/><circle cx="72.5" cy="105.0" fill="black" id="v22" r="2.5" stroke="black" stroke-width="1"/><circle cx="98.75" cy="89.0" fill="black" id="v23" r="2.5" stroke="black" stroke-width="1"/><circle cx="126.875" cy="73.0" fill="black" id="v24" r="2.5" stroke="black" stroke-width="1"/><circle cx="200.0" cy="121.0" fill="black" id="v25" r="2.5" stroke="black" stroke-width="1"/><circle cx="222.5" cy="105.0" fill="black" id="v26" r="2.5" stroke="black" stroke-width="1"/><circle cx="248.75" cy="89.0" fill="black" id="v27" r="2.5" stroke="black" stroke-width="1"/><circle cx="187.8125" cy="57.0" fill="black" id="v28" r="2.5" stroke="black" stroke-width="1"/><circle cx="380.0" cy="121.0" fill="black" id="v29" r="2.5" stroke="black" stroke-width="1"/><circle cx="402.5" cy="105.0" fill="black" id="v30" r="2.5" stroke="black" stroke-width="1"/><circle cx="368.75" cy="89.0" fill="black" id="v31" r="2.5" stroke="black" stroke-width="1"/><circle cx="470.0" cy="121.0" fill="black" id="v32" r="2.5" stroke="black" stroke-width="1"/><circle cx="419.375" cy="73.0" fill="black" id="v33" r="2.5" stroke="black" stroke-width="1"/><circle cx="530.0" cy="121.0" fill="black" id="v34" r="2.5" stroke="black" stroke-width="1"/><circle cx="474.6875" cy="57.0" fill="black" id="v35" r="2.5" stroke="black" stroke-width="1"/><circle cx="389.84375" cy="41.0" fill="black" id="v36" r="2.5" stroke="black" stroke-width="1"/><circle cx="288.828125" cy="25.0" fill="black" id="v37" r="2.5" stroke="black" stroke-width="1"/><circle cx="590.0" cy="121.0" fill="black" id="v38" r="2.5" stroke="black" stroke-width="1"/><circle cx="439.4140625" cy="9.0" fill="black" id="v39" r="2.5" stroke="black" stroke-width="1"/></g></svg>