<?xml version="1.0" encoding="UTF-8" standalone="no"?><svg xmlns="http://www.w3.org/2000/svg" height="657" version="1.1" viewport="0 0 650 537" width="700"><g id="labelLayer"><text dominant-baseline="middle" style="font-size: smaller;" text-anchor="middle" x="162.0" y="319.0">1</text><text dominant-baseline="middle" style="font-size: smaller;" text-anchor="middle" x="389.0" y="131.0">1</text><text dominant-baseline="middle" style="font-size: smaller;" text-anchor="middle" x="99.0" y="255.0">2</text><text dominant-baseline="middle" style="font-size: smaller;" text-anchor="middle" x="133.0" y="131.0">2</text><text dominant-baseline="middle" style="font-size: smaller;" text-anchor="middle" x="97.0" y="230.0">3</text><text dominant-baseline="middle" style="font-size: smaller;" text-anchor="middle" x="47.666666666666664" y="131.0">3</text><text dominant-baseline="middle" style="font-size: smaller;" text-anchor="middle" x="158.0" y="269.0">4</text><text dominant-baseline="middle" style="font-size: smaller;" text-anchor="middle" x="90.33333333333333" y="131.0">4</text><text dominant-baseline="middle" style="font-size: smaller;" text-anchor="middle" x="299.0" y="314.0">5</text><text dominant-baseline="middle" style="font-size: smaller;" text-anchor="middle" x="431.66666666666663" y="131.0">5</text><text dominant-baseline="middle" style="font-size: smaller;" text-anchor="middle" x="275.0" y="332.0">6</text><text dominant-baseline="middle" style="font-size: smaller;" text-anchor="middle" x="303.66666666666663" y="131.0">6</text><text dominant-baseline="middle" style="font-size: smaller;" text-anchor="middle" x="254.0" y="381.0">7</text><text dominant-baseline="middle" style="font-size: smaller;" text-anchor="middle" x="175.66666666666666" y="131.0">7</text><text dominant-baseline="middle" style="font-size: smaller;" text-anchor="middle" x="276.0" y="435.0">8</text><text dominant-baseline="middle" style="font-size: smaller;" text-anchor="middle" x="346.3333333333333" y="131.0">8</text><text dominant-baseline="middle" style="font-size: smaller;" text-anchor="middle" x="315.0" y="469.0">9</text><text dominant-baseline="middle" style="font-size: smaller;" text-anchor="middle" x="559.6666666666666" y="131.0">9</text><text dominant-baseline="middle" style="font-size: smaller;" text-anchor="middle" x="335.0" y="454.0">10</text><text dominant-baseline="middle" style="font-size: smaller;" text-anchor="middle" x="218.33333333333331" y="131.0">10</text><text dominant-baseline="middle" style="font-size: smaller;" text-anchor="middle" x="438.0" y="439.0">11</text><text dominant-baseline="middle" style="font-size: smaller;" text-anchor="middle" x="261.0" y="131.0">11</text><text dominant-baseline="middle" style="font-size: smaller;" text-anchor="middle" x="575.0" y="520.0">12</text><text dominant-baseline="middle" style="font-size: smaller;" text-anchor="middle" x="602.3333333333333" y="131.0">12</text><text dominant-baseline="middle" style="font-size: smaller;" text-anchor="middle" x="413.0" y="398.0">13</text><text dominant-baseline="middle" style="font-size: smaller;" text-anchor="middle" x="517.0" y="131.0">13</text><text dominant-baseline="middle" style="font-size: smaller;" text-anchor="middle" x="415.0" y="364.0">14</text><text dominant-baseline="middle" style="font-size: smaller;" text-anchor="middle" x="474.3333333333333" y="131.0">14</text></g><g id="leaderLayer"><path d="M162.0,309.0 389.0,137.0" fill="none" stroke="#666666" stroke-linecap="round" stroke-opacity="0.5" stroke-width="2"/><path d="M99.0,245.0 133.0,137.0" fill="none" stroke="#666666" stroke-linecap="round" stroke-opacity="0.5" stroke-width="2"/><path d="M97.0,220.0 47.666666666666664,137.0" fill="none" stroke="#666666" stroke-linecap="round" stroke-opacity="0.5" stroke-width="2"/><path d="M158.0,259.0 90.33333333333333,137.0" fill="none" stroke="#666666" stroke-linecap="round" stroke-opacity="0.5" stroke-width="2"/><path d="M299.0,304.0 431.66666666666663,137.0" fill="none" stroke="#666666" stroke-linecap="round" stroke-opacity="0.5" stroke-width="2"/><path d="M275.0,322.0 303.66666666666663,137.0" fill="none" stroke="#666666" stroke-linecap="round" stroke-opacity="0.5" stroke-width="2"/><path d="M254.0,371.0 175.66666666666666,137.0" fill="none" stroke="#666666" stroke-linecap="round" stroke-opacity="0.5" stroke-width="2"/><path d="M276.0,425.0 346.3333333333333,137.0" fill="none" stroke="#666666" stroke-linecap="round" stroke-opacity="0.5" stroke-width="2"/><path d="M315.0,459.0 559.6666666666666,137.0" fill="none" stroke="#666666" stroke-linecap="round" stroke-opacity="0.5" stroke-width="2"/><path d="M335.0,444.0 218.33333333333331,137.0" fill="none" stroke="#666666" stroke-linecap="round" stroke-opacity="0.5" stroke-width="2"/><path d="M438.0,429.0 261.0,137.0" fill="none" stroke="#666666" stroke-linecap="round" stroke-opacity="0.5" stroke-width="2"/><path d="M575.0,510.0 602.3333333333333,137.0" fill="none" stroke="#666666" stroke-linecap="round" stroke-opacity="0.5" stroke-width="2"/><path d="M413.0,388.0 517.0,137.0" fill="none" stroke="#666666" stroke-linecap="round" stroke-opacity="0.5" stroke-width="2"/><path d="M415.0,354.0 474.3333333333333,137.0" fill="none" stroke="#666666" stroke-linecap="round" stroke-opacity="0.5" stroke-width="2"/></g><g id="backgroundLayer"><rect fill="none" height="400" stroke="grey" stroke-width="2" width="640" x="5.0" y="137.0"/></g><g id="siteLayer"><path d="M160.0,307.0 164.0,311.0 M 160.0,311.0 164.0,307.0" fill="none" id="s1" stroke="black" stroke-width="1.5"/><path d="M97.0,243.0 101.0,247.0 M 97.0,247.0 101.0,243.0" fill="none" id="s2" stroke="black" stroke-width="1.5"/><path d="M95.0,218.0 99.0,222.0 M 95.0,222.0 99.0,218.0" fill="none" id="s3" stroke="black" stroke-width="1.5"/><path d="M156.0,257.0 160.0,261.0 M 156.0,261.0 160.0,257.0" fill="none" id="s4" stroke="black" stroke-width="1.5"/><path d="M297.0,302.0 301.0,306.0 M 297.0,306.0 301.0,302.0" fill="none" id="s5" stroke="black" stroke-width="1.5"/><path d="M273.0,320.0 277.0,324.0 M 273.0,324.0 277.0,320.0" fill="none" id="s6" stroke="black" stroke-width="1.5"/><path d="M252.0,369.0 256.0,373.0 M 252.0,373.0 256.0,369.0" fill="none" id="s7" stroke="black" stroke-width="1.5"/><path d="M274.0,423.0 278.0,427.0 M 274.0,427.0 278.0,423.0" fill="none" id="s8" stroke="black" stroke-width="1.5"/><path d="M313.0,457.0 317.0,461.0 M 313.0,461.0 317.0,457.0" fill="none" id="s9" stroke="black" stroke-width="1.5"/><path d="M333.0,442.0 337.0,446.0 M 333.0,446.0 337.0,442.0" fill="none" id="s10" stroke="black" stroke-width="1.5"/><path d="M436.0,427.0 440.0,431.0 M 436.0,431.0 440.0,427.0" fill="none" id="s11" stroke="black" stroke-width="1.5"/><path d="M573.0,508.0 577.0,512.0 M 573.0,512.0 577.0,508.0" fill="none" id="s12" stroke="black" stroke-width="1.5"/><path d="M411.0,386.0 415.0,390.0 M 411.0,390.0 415.0,386.0" fill="none" id="s13" stroke="black" stroke-width="1.5"/><path d="M413.0,352.0 417.0,356.0 M 413.0,356.0 417.0,352.0" fill="none" id="s14" stroke="black" stroke-width="1.5"/></g><g id="edgeLayer"><path d="M389.0,121.0 389.0,73.0 437.0,73.0" fill="none" stroke="black" stroke-width="2"/><path d="M133.0,121.0 133.0,73.0 181.0,73.0" fill="none" stroke="black" stroke-width="2"/><path d="M47.666666666666664,121.0 47.666666666666664,25.0 139.0,25.0" fill="none" stroke="black" stroke-width="2"/><path d="M90.33333333333333,121.0 90.33333333333333,57.0 135.66666666666666,57.0" fill="none" stroke="black" stroke-width="2"/><path d="M431.66666666666663,121.0 431.66666666666663,105.0 453.0,105.0" fill="none" stroke="black" stroke-width="2"/><path d="M303.66666666666663,121.0 303.66666666666663,105.0 325.0,105.0" fill="none" stroke="black" stroke-width="2"/><path d="M175.66666666666666,121.0 175.66666666666666,105.0 197.0,105.0" fill="none" stroke="black" stroke-width="2"/><path d="M346.3333333333333,121.0 346.3333333333333,105.0 325.0,105.0" fill="none" stroke="black" stroke-width="2"/><path d="M559.6666666666666,121.0 559.6666666666666,105.0 581.0,105.0" fill="none" stroke="black" stroke-width="2"/><path d="M218.33333333333331,121.0 218.33333333333331,105.0 197.0,105.0" fill="none" stroke="black" stroke-width="2"/><path d="M261.0,121.0 261.0,89.0 229.0,89.0" fill="none" stroke="black" stroke-width="2"/><path d="M602.3333333333333,121.0 602.3333333333333,105.0 581.0,105.0" fill="none" stroke="black" stroke-width="2"/><path d="M517.0,121.0 517.0,89.0 485.0,89.0" fill="none" stroke="black" stroke-width="2"/><path d="M474.3333333333333,121.0 474.3333333333333,105.0 453.0,105.0" fill="none" stroke="black" stroke-width="2"/><path d="M581.0,105.0 581.0,57.0 509.0,57.0" fill="none" stroke="black" stroke-width="2"/><path d="M453.0,105.0 453.0,89.0 485.0,89.0" fill="none" stroke="black" stroke-width="2"/><path d="M485.0,89.0 485.0,73.0 437.0,73.0" fill="none" stroke="black" stroke-width="2"/><path d="M437.0,73.0 437.0,57.0 509.0,57.0" fill="none" stroke="black" stroke-width="2"/><path d="M509.0,57.0 509.0,9.0 324.0,9.0" fill="none" stroke="black" stroke-width="2"/><path d="M325.0,105.0 325.0,41.0 230.33333333333331,41.0" fill="none" stroke="black" stroke-width="2"/><path d="M197.0,105.0 197.0,89.0 229.0,89.0" fill="none" stroke="black" stroke-width="2"/><path d="M229.0,89.0 229.0,73.0 181.0,73.0" fill="none" stroke="black" stroke-width="2"/><path d="M181.0,73.0 181.0,57.0 135.66666666666666,57.0" fill="none" stroke="black" stroke-width="2"/><path d="M135.66666666666666,57.0 135.66666666666666,41.0 230.33333333333331,41.0" fill="none" stroke="black" stroke-width="2"/><path d="M230.33333333333331,41.0 230.33333333333331,25.0 139.0,25.0" fill="none" stroke="black" stroke-width="2"/><path d="M139.0,25.0 139.0,9.0 324.0,9.0" fill="none" stroke="black" stroke-width="2"/></g><g id="vertexLayer"><circle cx="389.0" cy="121.0" fill="white" id="v1" r="2.5" stroke="black" stroke-width="1"/><circle cx="133.0" cy="121.0" fill="white" id="v2" r="2.5" stroke="black" stroke-width="1"/><circle cx="47.666666666666664" cy="121.0" fill="white" id="v3" r="2.5" stroke="black" stroke-width="1"/><circle cx="90.33333333333333" cy="121.0" fill="white" id="v4" r="2.5" stroke="black" stroke-width="1"/><circle cx="431.66666666666663" cy="121.0" fill="white" id="v5" r="2.5" stroke="black" stroke-width="1"/><circle cx="303.66666666666663" cy="121.0" fill="white" id="v6" r="2.5" stroke="black" stroke-width="1"/><circle cx="175.66666666666666" cy="121.0" fill="white" id="v7" r="2.5" stroke="black" stroke-width="1"/><circle cx="346.3333333333333" cy="121.0" fill="white" id="v8" r="2.5" stroke="black" stroke-width="1"/><circle cx="559.6666666666666" cy="121.0" fill="white" id="v9" r="2.5" stroke="black" stroke-width="1"/><circle cx="218.33333333333331" cy="121.0" fill="white" id="v10" r="2.5" stroke="black" stroke-width="1"/><circle cx="261.0" cy="121.0" fill="white" id="v11" r="2.5" stroke="black" stroke-width="1"/><circle cx="602.3333333333333" cy="121.0" fill="white" id="v12" r="2.5" stroke="black" stroke-width="1"/><circle cx="517.0" cy="121.0" fill="white" id="v13" r="2.5" stroke="black" stroke-width="1"/><circle cx="474.3333333333333" cy="121.0" fill="white" id="v14" r="2.5" stroke="black" stroke-width="1"/><circle cx="581.0" cy="105.0" fill="black" id="v15" r="2.5" stroke="black" stroke-width="1"/><circle cx="453.0" cy="105.0" fill="black" id="v16" r="2.5" stroke="black" stroke-width="1"/><circle cx="485.0" cy="89.0" fill="black" id="v17" r="2.5" stroke="black" stroke-width="1"/><circle cx="437.0" cy="73.0" fill="black" id="v18" r="2.5" stroke="black" stroke-width="1"/><circle cx="509.0" cy="57.0" fill="black" id="v19" r="2.5" stroke="black" stroke-width="1"/><circle cx="325.0" cy="105.0" fill="black" id="v20" r="2.5" stroke="black" stroke-width="1"/><circle cx="197.0" cy="105.0" fill="black" id="v21" r="2.5" stroke="black" stroke-width="1"/><circle cx="229.0" cy="89.0" fill="black" id="v22" r="2.5" stroke="black" stroke-width="1"/><circle cx="181.0" cy="73.0" fill="black" id="v23" r="2.5" stroke="black" stroke-width="1"/><circle cx="135.66666666666666" cy="57.0" fill="black" id="v24" r="2.5" stroke="black" stroke-width="1"/><circle cx="230.33333333333331" cy="41.0" fill="black" id="v25" r="2.5" stroke="black" stroke-width="1"/><circle cx="139.0" cy="25.0" fill="black" id="v26" r="2.5" stroke="black" stroke-width="1"/><circle cx="324.0" cy="9.0" fill="black" id="v27" r="2.5" stroke="black" stroke-width="1"/></g></svg>